<svg width="660" height="431" viewBox="0 0 660 431" fill="none" xmlns="http://www.w3.org/2000/svg">
<path opacity="0.26" fill-rule="evenodd" clip-rule="evenodd" d="M308.969 281.688C305.902 283.458 300.929 283.458 297.862 281.688C294.795 279.917 294.795 277.046 297.862 275.276C300.929 273.505 305.902 273.505 308.969 275.276C312.036 277.046 312.036 279.917 308.969 281.688ZM149.77 196.195C152.837 197.965 157.81 197.965 160.877 196.195C163.944 194.424 163.944 191.553 160.877 189.783C157.81 188.012 152.837 188.012 149.77 189.783C146.703 191.553 146.703 194.424 149.77 196.195ZM91.5025 229.833C94.5696 231.603 99.5423 231.603 102.609 229.833C105.676 228.062 105.676 225.191 102.609 223.421C99.5423 221.65 94.5696 221.65 91.5025 223.421C88.4354 225.191 88.4354 228.062 91.5025 229.833ZM271.946 260.315C268.879 262.086 263.906 262.086 260.839 260.315C257.772 258.544 257.772 255.674 260.839 253.903C263.906 252.132 268.879 252.132 271.946 253.903C275.013 255.674 275.013 258.544 271.946 260.315ZM202.572 293.953C205.639 295.724 210.611 295.724 213.679 293.953C216.746 292.182 216.746 289.312 213.679 287.541C210.611 285.77 205.639 285.77 202.572 287.541C199.505 289.312 199.505 292.182 202.572 293.953ZM179.388 206.882C176.321 208.652 171.349 208.652 168.282 206.882C165.214 205.111 165.214 202.24 168.282 200.47C171.349 198.699 176.321 198.699 179.388 200.47C182.456 202.24 182.456 205.111 179.388 206.882ZM110.014 240.519C113.081 242.289 118.054 242.289 121.121 240.519C124.188 238.748 124.188 235.877 121.121 234.107C118.054 232.336 113.081 232.336 110.014 234.107C106.947 235.877 106.947 238.748 110.014 240.519ZM290.457 271.002C287.39 272.772 282.418 272.772 279.35 271.002C276.283 269.231 276.283 266.36 279.35 264.59C282.418 262.819 287.39 262.819 290.457 264.59C293.524 266.36 293.524 269.231 290.457 271.002ZM221.083 304.64C224.15 306.411 229.123 306.411 232.19 304.64C235.257 302.869 235.257 299.999 232.19 298.228C229.123 296.457 224.15 296.457 221.083 298.228C218.016 299.999 218.016 302.869 221.083 304.64ZM197.9 217.568C194.833 219.339 189.86 219.339 186.793 217.568C183.726 215.798 183.726 212.927 186.793 211.156C189.86 209.386 194.833 209.386 197.9 211.156C200.967 212.927 200.967 215.798 197.9 217.568ZM128.525 251.205C131.592 252.976 136.565 252.976 139.632 251.205C142.699 249.435 142.699 246.564 139.632 244.793C136.565 243.023 131.592 243.023 128.525 244.793C125.458 246.564 125.458 249.435 128.525 251.205ZM239.595 315.326C242.662 317.096 247.634 317.096 250.701 315.326C253.769 313.555 253.769 310.684 250.701 308.914C247.634 307.143 242.662 307.143 239.595 308.914C236.527 310.684 236.527 313.555 239.595 315.326ZM216.411 228.254C213.344 230.025 208.372 230.025 205.304 228.254C202.237 226.484 202.237 223.613 205.304 221.842C208.372 220.072 213.344 220.072 216.411 221.842C219.478 223.613 219.478 226.484 216.411 228.254ZM147.037 261.892C150.104 263.663 155.077 263.663 158.144 261.892C161.211 260.122 161.211 257.251 158.144 255.48C155.077 253.71 150.104 253.71 147.037 255.48C143.97 257.251 143.97 260.122 147.037 261.892ZM327.48 292.375C324.413 294.145 319.44 294.145 316.373 292.375C313.306 290.604 313.306 287.733 316.373 285.963C319.44 284.192 324.413 284.192 327.48 285.963C330.547 287.733 330.547 290.604 327.48 292.375ZM258.106 326.013C261.173 327.783 266.146 327.783 269.213 326.013C272.28 324.242 272.28 321.371 269.213 319.601C266.146 317.83 261.173 317.83 258.106 319.601C255.039 321.371 255.039 324.242 258.106 326.013ZM234.923 238.941C231.855 240.712 226.883 240.712 223.816 238.941C220.749 237.171 220.749 234.3 223.816 232.529C226.883 230.758 231.855 230.758 234.923 232.529C237.99 234.3 237.99 237.171 234.923 238.941ZM165.548 272.579C168.615 274.35 173.588 274.35 176.655 272.579C179.722 270.809 179.722 267.938 176.655 266.167C173.588 264.397 168.615 264.397 165.548 266.167C162.481 267.938 162.481 270.809 165.548 272.579ZM345.992 303.061C342.925 304.832 337.952 304.832 334.885 303.061C331.818 301.291 331.818 298.42 334.885 296.649C337.952 294.879 342.925 294.879 345.992 296.649C349.059 298.42 349.059 301.291 345.992 303.061ZM276.617 336.698C279.684 338.469 284.657 338.469 287.724 336.698C290.791 334.928 290.791 332.057 287.724 330.286C284.657 328.516 279.684 328.516 276.617 330.286C273.55 332.057 273.55 334.928 276.617 336.698ZM253.434 249.628C250.367 251.399 245.395 251.399 242.328 249.628C239.26 247.857 239.26 244.987 242.328 243.216C245.395 241.445 250.367 241.445 253.434 243.216C256.501 244.987 256.501 247.857 253.434 249.628ZM184.06 283.266C187.127 285.037 192.1 285.037 195.167 283.266C198.234 281.496 198.234 278.625 195.167 276.854C192.1 275.084 187.127 275.084 184.06 276.854C180.993 278.625 180.993 281.496 184.06 283.266ZM364.503 313.748C361.436 315.519 356.463 315.519 353.396 313.748C350.329 311.978 350.329 309.107 353.396 307.336C356.463 305.566 361.436 305.566 364.503 307.336C367.57 309.107 367.57 311.978 364.503 313.748ZM295.129 347.386C298.196 349.157 303.169 349.157 306.236 347.386C309.303 345.616 309.303 342.745 306.236 340.974C303.169 339.204 298.196 339.204 295.129 340.974C292.062 342.745 292.062 345.616 295.129 347.386ZM141.455 207.406C138.388 209.177 133.416 209.177 130.349 207.406C127.281 205.636 127.281 202.765 130.349 200.994C133.416 199.224 138.388 199.224 141.455 200.994C144.523 202.765 144.523 205.636 141.455 207.406ZM72.0795 241.045C75.1466 242.816 80.1193 242.816 83.1864 241.045C86.2535 239.275 86.2535 236.404 83.1864 234.633C80.1193 232.863 75.1466 232.863 72.0795 234.633C69.0124 236.404 69.0124 239.275 72.0795 241.045ZM252.525 271.527C249.458 273.297 244.485 273.297 241.418 271.527C238.351 269.756 238.351 266.885 241.418 265.115C244.485 263.344 249.457 263.344 252.525 265.115C255.592 266.885 255.592 269.756 252.525 271.527ZM183.149 305.166C186.216 306.936 191.188 306.936 194.256 305.166C197.323 303.395 197.323 300.524 194.256 298.754C191.188 296.983 186.216 296.983 183.149 298.754C180.082 300.524 180.082 303.395 183.149 305.166ZM122.031 218.62C118.964 220.391 113.991 220.391 110.924 218.62C107.857 216.849 107.857 213.979 110.924 212.208C113.991 210.437 118.964 210.437 122.031 212.208C125.098 213.979 125.098 216.849 122.031 218.62ZM52.6564 252.258C55.7235 254.029 60.6962 254.029 63.7633 252.258C66.8304 250.488 66.8304 247.617 63.7633 245.846C60.6962 244.076 55.7235 244.076 52.6564 245.846C49.5893 247.617 49.5893 250.488 52.6564 252.258ZM233.1 282.74C230.033 284.511 225.06 284.511 221.993 282.74C218.926 280.97 218.926 278.099 221.993 276.328C225.06 274.558 230.033 274.558 233.1 276.328C236.167 278.099 236.167 280.97 233.1 282.74ZM163.726 316.378C166.793 318.149 171.765 318.149 174.832 316.378C177.9 314.608 177.9 311.737 174.832 309.966C171.765 308.196 166.793 308.196 163.726 309.966C160.658 311.737 160.658 314.608 163.726 316.378ZM159.967 218.093C156.9 219.864 151.927 219.864 148.86 218.093C145.793 216.323 145.793 213.452 148.86 211.681C151.927 209.911 156.9 209.911 159.967 211.681C163.034 213.452 163.034 216.323 159.967 218.093ZM90.5911 251.732C93.6582 253.503 98.6309 253.503 101.698 251.732C104.765 249.962 104.765 247.091 101.698 245.32C98.6309 243.55 93.6582 243.55 90.5911 245.32C87.524 247.091 87.524 249.962 90.5911 251.732ZM271.036 282.213C267.969 283.984 262.996 283.984 259.929 282.213C256.862 280.443 256.862 277.572 259.929 275.801C262.996 274.031 267.969 274.031 271.036 275.801C274.103 277.572 274.103 280.443 271.036 282.213ZM201.66 315.853C204.727 317.623 209.7 317.623 212.767 315.853C215.834 314.082 215.834 311.211 212.767 309.441C209.7 307.67 204.727 307.67 201.66 309.441C198.593 311.211 198.593 314.082 201.66 315.853ZM140.542 229.307C137.475 231.078 132.503 231.078 129.436 229.307C126.368 227.536 126.368 224.666 129.436 222.895C132.503 221.124 137.475 221.124 140.542 222.895C143.609 224.666 143.609 227.536 140.542 229.307ZM71.168 262.945C74.2351 264.716 79.2078 264.716 82.2749 262.945C85.342 261.174 85.342 258.304 82.2749 256.533C79.2078 254.762 74.2351 254.762 71.168 256.533C68.1009 258.304 68.1009 261.174 71.168 262.945ZM251.611 293.427C248.544 295.198 243.571 295.198 240.504 293.427C237.437 291.657 237.437 288.786 240.504 287.015C243.571 285.245 248.544 285.245 251.611 287.015C254.678 288.786 254.678 291.657 251.611 293.427ZM182.237 327.065C185.304 328.836 190.277 328.836 193.344 327.065C196.411 325.295 196.411 322.424 193.344 320.653C190.277 318.883 185.304 318.883 182.237 320.653C179.17 322.424 179.17 325.295 182.237 327.065ZM178.478 228.78C175.411 230.551 170.439 230.551 167.371 228.78C164.304 227.009 164.304 224.139 167.371 222.368C170.439 220.597 175.411 220.597 178.478 222.368C181.545 224.139 181.545 227.009 178.478 228.78ZM109.102 262.419C112.17 264.19 117.142 264.19 120.209 262.419C123.276 260.649 123.276 257.778 120.209 256.007C117.142 254.237 112.17 254.237 109.102 256.007C106.035 257.778 106.035 260.649 109.102 262.419ZM289.547 292.9C286.48 294.671 281.508 294.671 278.441 292.9C275.374 291.13 275.374 288.259 278.441 286.488C281.508 284.718 286.48 284.718 289.547 286.488C292.615 288.259 292.615 291.13 289.547 292.9ZM220.172 326.538C223.239 328.309 228.211 328.309 231.278 326.538C234.346 324.768 234.346 321.897 231.278 320.126C228.211 318.356 223.239 318.356 220.172 320.126C217.104 321.897 217.104 324.768 220.172 326.538ZM159.054 239.994C155.987 241.764 151.014 241.764 147.947 239.994C144.88 238.223 144.88 235.352 147.947 233.582C151.014 231.811 155.987 231.811 159.054 233.582C162.121 235.352 162.121 238.223 159.054 239.994ZM89.6793 273.631C92.7464 275.401 97.7191 275.401 100.786 273.631C103.853 271.86 103.853 268.989 100.786 267.219C97.7191 265.448 92.7464 265.448 89.6793 267.219C86.6122 268.989 86.6122 271.86 89.6793 273.631ZM270.123 304.114C267.056 305.885 262.083 305.885 259.016 304.114C255.949 302.344 255.949 299.473 259.016 297.702C262.083 295.932 267.056 295.932 270.123 297.702C273.19 299.473 273.19 302.344 270.123 304.114ZM200.748 337.752C203.816 339.523 208.788 339.523 211.855 337.752C214.922 335.982 214.922 333.111 211.855 331.34C208.788 329.57 203.816 329.57 200.748 331.34C197.681 333.111 197.681 335.982 200.748 337.752ZM196.99 239.467C193.923 241.238 188.95 241.238 185.883 239.467C182.816 237.696 182.816 234.826 185.883 233.055C188.95 231.284 193.923 231.284 196.99 233.055C200.057 234.826 200.057 237.696 196.99 239.467ZM127.614 273.105C130.681 274.876 135.654 274.876 138.721 273.105C141.788 271.334 141.788 268.464 138.721 266.693C135.654 264.922 130.681 264.922 127.614 266.693C124.547 268.464 124.547 271.334 127.614 273.105ZM308.059 303.586C304.992 305.357 300.019 305.357 296.952 303.586C293.885 301.815 293.885 298.945 296.952 297.174C300.019 295.403 304.992 295.403 308.059 297.174C311.126 298.945 311.126 301.815 308.059 303.586ZM238.683 337.225C241.75 338.996 246.723 338.996 249.79 337.225C252.857 335.455 252.857 332.584 249.79 330.813C246.723 329.043 241.75 329.043 238.683 330.813C235.616 332.584 235.616 335.455 238.683 337.225ZM177.565 250.681C174.498 252.451 169.525 252.451 166.458 250.681C163.391 248.91 163.391 246.039 166.458 244.269C169.525 242.498 174.498 242.498 177.565 244.269C180.632 246.039 180.632 248.91 177.565 250.681ZM108.191 284.318C111.258 286.088 116.231 286.088 119.298 284.318C122.365 282.547 122.365 279.676 119.298 277.906C116.231 276.135 111.258 276.135 108.191 277.906C105.124 279.676 105.124 282.547 108.191 284.318ZM288.634 314.8C285.567 316.571 280.594 316.571 277.527 314.8C274.46 313.029 274.46 310.159 277.527 308.388C280.594 306.617 285.567 306.617 288.634 308.388C291.701 310.159 291.701 313.029 288.634 314.8ZM219.26 348.438C222.327 350.209 227.299 350.209 230.367 348.438C233.434 346.667 233.434 343.797 230.367 342.026C227.299 340.255 222.327 340.255 219.26 342.026C216.193 343.797 216.193 346.667 219.26 348.438ZM215.501 250.153C212.434 251.923 207.461 251.923 204.394 250.153C201.327 248.382 201.327 245.511 204.394 243.741C207.461 241.97 212.434 241.97 215.501 243.741C218.568 245.511 218.568 248.382 215.501 250.153ZM146.125 283.792C149.192 285.563 154.165 285.563 157.232 283.792C160.299 282.021 160.299 279.151 157.232 277.38C154.165 275.609 149.192 275.609 146.125 277.38C143.058 279.151 143.058 282.021 146.125 283.792ZM326.57 314.273C323.503 316.044 318.53 316.044 315.463 314.273C312.396 312.502 312.396 309.632 315.463 307.861C318.53 306.09 323.503 306.09 326.57 307.861C329.637 309.632 329.637 312.502 326.57 314.273ZM257.194 347.912C260.261 349.683 265.234 349.683 268.301 347.912C271.368 346.142 271.368 343.271 268.301 341.5C265.234 339.73 260.261 339.73 257.194 341.5C254.127 343.271 254.127 346.142 257.194 347.912ZM196.076 261.367C193.009 263.137 188.037 263.137 184.97 261.367C181.902 259.596 181.903 256.725 184.97 254.955C188.037 253.184 193.009 253.184 196.076 254.955C199.144 256.725 199.144 259.596 196.076 261.367ZM126.702 295.005C129.769 296.775 134.742 296.775 137.809 295.005C140.876 293.234 140.876 290.363 137.809 288.593C134.742 286.822 129.769 286.822 126.702 288.593C123.635 290.363 123.635 293.234 126.702 295.005ZM307.145 325.487C304.078 327.257 299.106 327.257 296.039 325.487C292.972 323.716 292.972 320.845 296.039 319.075C299.106 317.304 304.078 317.304 307.145 319.075C310.213 320.845 310.213 323.716 307.145 325.487ZM237.771 359.125C240.838 360.896 245.811 360.896 248.878 359.125C251.945 357.354 251.945 354.484 248.878 352.713C245.811 350.942 240.838 350.942 237.771 352.713C234.704 354.484 234.704 357.354 237.771 359.125ZM234.013 260.84C230.946 262.61 225.973 262.61 222.906 260.84C219.839 259.069 219.839 256.198 222.906 254.428C225.973 252.657 230.946 252.657 234.013 254.428C237.08 256.198 237.08 259.069 234.013 260.84ZM164.637 294.479C167.704 296.249 172.677 296.249 175.744 294.479C178.811 292.708 178.811 289.837 175.744 288.067C172.677 286.296 167.704 286.296 164.637 288.067C161.57 289.837 161.57 292.708 164.637 294.479ZM345.082 324.96C342.015 326.731 337.042 326.731 333.975 324.96C330.908 323.189 330.908 320.319 333.975 318.548C337.042 316.777 342.015 316.777 345.082 318.548C348.149 320.319 348.149 323.189 345.082 324.96ZM275.706 358.599C278.773 360.37 283.746 360.37 286.813 358.599C289.88 356.828 289.88 353.958 286.813 352.187C283.746 350.416 278.773 350.416 275.706 352.187C272.639 353.958 272.639 356.828 275.706 358.599ZM214.588 272.053C211.521 273.824 206.549 273.824 203.481 272.053C200.414 270.283 200.414 267.412 203.481 265.641C206.549 263.871 211.521 263.871 214.588 265.641C217.655 267.412 217.655 270.283 214.588 272.053ZM145.214 305.692C148.281 307.462 153.254 307.462 156.321 305.692C159.388 303.921 159.388 301.05 156.321 299.28C153.254 297.509 148.281 297.509 145.214 299.28C142.147 301.05 142.147 303.921 145.214 305.692ZM325.657 336.174C322.59 337.944 317.617 337.944 314.55 336.174C311.483 334.403 311.483 331.532 314.55 329.762C317.617 327.991 322.59 327.991 325.657 329.762C328.724 331.532 328.724 334.403 325.657 336.174ZM256.283 369.812C259.35 371.582 264.323 371.582 267.39 369.812C270.457 368.041 270.457 365.17 267.39 363.4C264.323 361.629 259.35 361.629 256.283 363.4C253.216 365.17 253.216 368.041 256.283 369.812Z" fill="url(#paint0_linear_5564_2966)"/>
<path opacity="0.26" fill-rule="evenodd" clip-rule="evenodd" d="M587.64 236.508C584.573 238.279 579.601 238.279 576.533 236.508C573.466 234.737 573.466 231.866 576.533 230.096C579.601 228.325 584.573 228.325 587.64 230.096C590.707 231.866 590.707 234.737 587.64 236.508ZM550.618 215.135C547.551 216.906 542.578 216.906 539.511 215.135C536.444 213.365 536.444 210.494 539.511 208.723C542.578 206.953 547.551 206.953 550.618 208.723C553.685 210.494 553.685 213.365 550.618 215.135ZM428.442 151.015C431.509 152.786 436.481 152.786 439.548 151.015C442.616 149.244 442.616 146.374 439.548 144.603C436.481 142.832 431.509 142.832 428.442 144.603C425.374 146.374 425.374 149.244 428.442 151.015ZM370.174 184.653C373.241 186.424 378.214 186.424 381.281 184.653C384.348 182.882 384.348 180.012 381.281 178.241C378.214 176.47 373.241 176.47 370.174 178.241C367.107 180.012 367.107 182.882 370.174 184.653ZM481.243 248.773C484.31 250.544 489.283 250.544 492.35 248.773C495.417 247.003 495.417 244.132 492.35 242.361C489.283 240.591 484.31 240.591 481.243 242.361C478.176 244.132 478.176 247.003 481.243 248.773ZM458.06 161.702C454.993 163.472 450.02 163.472 446.953 161.702C443.886 159.931 443.886 157.06 446.953 155.29C450.02 153.519 454.993 153.519 458.06 155.29C461.127 157.06 461.127 159.931 458.06 161.702ZM388.685 195.339C391.753 197.109 396.725 197.109 399.792 195.339C402.859 193.568 402.859 190.697 399.792 188.927C396.725 187.156 391.753 187.156 388.685 188.927C385.618 190.697 385.618 193.568 388.685 195.339ZM569.129 225.822C566.062 227.593 561.089 227.593 558.022 225.822C554.955 224.051 554.955 221.181 558.022 219.41C561.089 217.639 566.062 217.639 569.129 219.41C572.196 221.181 572.196 224.051 569.129 225.822ZM499.754 259.46C502.822 261.231 507.794 261.231 510.861 259.46C513.928 257.69 513.928 254.819 510.861 253.048C507.794 251.278 502.822 251.278 499.754 253.048C496.687 254.819 496.687 257.69 499.754 259.46ZM476.571 172.389C473.504 174.159 468.532 174.159 465.464 172.389C462.397 170.618 462.397 167.747 465.464 165.977C468.532 164.206 473.504 164.206 476.571 165.977C479.638 167.747 479.638 170.618 476.571 172.389ZM407.197 206.026C410.264 207.796 415.237 207.796 418.304 206.026C421.371 204.255 421.371 201.384 418.304 199.614C415.237 197.843 410.264 197.843 407.197 199.614C404.13 201.384 404.13 204.255 407.197 206.026ZM518.266 270.146C521.333 271.917 526.306 271.917 529.373 270.146C532.44 268.375 532.44 265.505 529.373 263.734C526.306 261.963 521.333 261.963 518.266 263.734C515.199 265.505 515.199 268.375 518.266 270.146ZM495.083 183.075C492.016 184.845 487.043 184.845 483.976 183.075C480.909 181.304 480.909 178.433 483.976 176.662C487.043 174.892 492.016 174.892 495.083 176.662C498.15 178.433 498.15 181.304 495.083 183.075ZM425.709 216.713C428.776 218.483 433.748 218.483 436.816 216.713C439.883 214.942 439.883 212.071 436.816 210.301C433.748 208.53 428.776 208.53 425.709 210.301C422.642 212.071 422.642 214.942 425.709 216.713ZM606.152 247.195C603.084 248.965 598.112 248.965 595.045 247.195C591.978 245.424 591.978 242.553 595.045 240.783C598.112 239.012 603.084 239.012 606.152 240.783C609.219 242.553 609.219 245.424 606.152 247.195ZM536.777 280.833C539.844 282.604 544.817 282.604 547.884 280.833C550.951 279.062 550.951 276.192 547.884 274.421C544.817 272.65 539.844 272.65 536.777 274.421C533.71 276.192 533.71 279.062 536.777 280.833ZM513.594 193.761C510.527 195.532 505.554 195.532 502.487 193.761C499.42 191.991 499.42 189.12 502.487 187.349C505.554 185.579 510.527 185.579 513.594 187.349C516.661 189.12 516.661 191.991 513.594 193.761ZM444.22 227.4C447.287 229.17 452.26 229.17 455.327 227.4C458.394 225.629 458.394 222.758 455.327 220.988C452.26 219.217 447.287 219.217 444.22 220.988C441.153 222.758 441.153 225.629 444.22 227.4ZM624.663 257.882C621.596 259.652 616.623 259.652 613.556 257.882C610.489 256.111 610.489 253.24 613.556 251.47C616.623 249.699 621.596 249.699 624.663 251.47C627.73 253.24 627.73 256.111 624.663 257.882ZM555.289 291.519C558.356 293.289 563.329 293.289 566.396 291.519C569.463 289.748 569.463 286.877 566.396 285.107C563.329 283.336 558.356 283.336 555.289 285.107C552.222 286.877 552.222 289.748 555.289 291.519ZM532.106 204.448C529.039 206.219 524.066 206.219 520.999 204.448C517.932 202.678 517.932 199.807 520.999 198.036C524.066 196.266 529.039 196.266 532.106 198.036C535.173 199.807 535.173 202.678 532.106 204.448ZM462.732 238.086C465.799 239.857 470.771 239.857 473.838 238.086C476.906 236.316 476.906 233.445 473.838 231.674C470.771 229.904 465.799 229.904 462.732 231.674C459.665 233.445 459.665 236.316 462.732 238.086ZM643.175 268.569C640.108 270.339 635.135 270.339 632.068 268.569C629.001 266.798 629.001 263.927 632.068 262.157C635.135 260.386 640.108 260.386 643.175 262.157C646.242 263.927 646.242 266.798 643.175 268.569ZM573.8 302.207C576.867 303.977 581.84 303.977 584.907 302.207C587.974 300.436 587.974 297.565 584.907 295.795C581.84 294.024 576.867 294.024 573.8 295.795C570.733 297.565 570.733 300.436 573.8 302.207ZM420.127 162.227C417.06 163.997 412.087 163.997 409.02 162.227C405.953 160.456 405.953 157.585 409.02 155.815C412.087 154.044 417.06 154.044 420.127 155.815C423.194 157.585 423.194 160.456 420.127 162.227ZM350.751 195.866C353.818 197.636 358.791 197.636 361.858 195.866C364.925 194.095 364.925 191.224 361.858 189.454C358.791 187.683 353.818 187.683 350.751 189.454C347.684 191.224 347.684 194.095 350.751 195.866ZM531.196 226.347C528.129 228.117 523.156 228.117 520.089 226.347C517.022 224.576 517.022 221.705 520.089 219.935C523.156 218.164 528.129 218.164 531.196 219.935C534.263 221.705 534.263 224.576 531.196 226.347ZM461.82 259.986C464.887 261.757 469.86 261.757 472.927 259.986C475.994 258.215 475.994 255.345 472.927 253.574C469.86 251.803 464.887 251.803 461.82 253.574C458.753 255.345 458.753 258.215 461.82 259.986ZM400.702 173.44C397.635 175.211 392.663 175.211 389.596 173.44C386.529 171.67 386.529 168.799 389.596 167.028C392.663 165.258 397.635 165.258 400.702 167.028C403.77 168.799 403.77 171.67 400.702 173.44ZM331.328 207.078C334.395 208.849 339.368 208.849 342.435 207.078C345.502 205.308 345.502 202.437 342.435 200.666C339.368 198.896 334.395 198.896 331.328 200.666C328.261 202.437 328.261 205.308 331.328 207.078ZM511.772 237.561C508.704 239.331 503.732 239.331 500.665 237.561C497.598 235.79 497.598 232.919 500.665 231.149C503.732 229.378 508.704 229.378 511.772 231.149C514.839 232.919 514.839 235.79 511.772 237.561ZM442.397 271.199C445.464 272.969 450.437 272.969 453.504 271.199C456.571 269.428 456.571 266.557 453.504 264.787C450.437 263.016 445.464 263.016 442.397 264.787C439.33 266.557 439.33 269.428 442.397 271.199ZM438.639 172.913C435.572 174.684 430.599 174.684 427.532 172.913C424.465 171.143 424.465 168.272 427.532 166.501C430.599 164.731 435.572 164.731 438.639 166.501C441.706 168.272 441.706 171.143 438.639 172.913ZM369.263 206.553C372.33 208.323 377.303 208.323 380.37 206.553C383.437 204.782 383.437 201.911 380.37 200.141C377.303 198.37 372.33 198.37 369.263 200.141C366.196 201.911 366.196 204.782 369.263 206.553ZM549.707 237.034C546.64 238.804 541.668 238.804 538.6 237.034C535.533 235.263 535.533 232.392 538.6 230.622C541.668 228.851 546.64 228.851 549.707 230.622C552.774 232.392 552.774 235.263 549.707 237.034ZM480.332 270.673C483.399 272.444 488.371 272.444 491.438 270.673C494.506 268.902 494.506 266.032 491.438 264.261C488.371 262.49 483.399 262.49 480.332 264.261C477.264 266.032 477.264 268.902 480.332 270.673ZM419.214 184.127C416.147 185.898 411.174 185.898 408.107 184.127C405.04 182.357 405.04 179.486 408.107 177.715C411.174 175.945 416.147 175.945 419.214 177.715C422.281 179.486 422.281 182.357 419.214 184.127ZM349.84 217.765C352.907 219.536 357.879 219.536 360.946 217.765C364.014 215.995 364.014 213.124 360.946 211.353C357.879 209.583 352.907 209.583 349.84 211.353C346.772 213.124 346.772 215.995 349.84 217.765ZM530.283 248.248C527.216 250.018 522.243 250.018 519.176 248.248C516.109 246.477 516.109 243.606 519.176 241.835C522.243 240.065 527.216 240.065 530.283 241.835C533.35 243.606 533.35 246.477 530.283 248.248ZM460.909 281.886C463.976 283.656 468.948 283.656 472.015 281.886C475.083 280.115 475.083 277.244 472.015 275.474C468.948 273.703 463.976 273.703 460.909 275.474C457.841 277.244 457.841 280.115 460.909 281.886ZM457.15 183.6C454.083 185.371 449.11 185.371 446.043 183.6C442.976 181.83 442.976 178.959 446.043 177.188C449.11 175.418 454.083 175.418 457.15 177.188C460.217 178.959 460.217 181.83 457.15 183.6ZM387.774 217.24C390.841 219.01 395.814 219.01 398.881 217.24C401.948 215.469 401.948 212.598 398.881 210.828C395.814 209.057 390.841 209.057 387.774 210.828C384.707 212.598 384.707 215.469 387.774 217.24ZM568.219 247.721C565.152 249.491 560.179 249.491 557.112 247.721C554.045 245.95 554.045 243.079 557.112 241.309C560.179 239.538 565.152 239.538 568.219 241.309C571.286 243.079 571.286 245.95 568.219 247.721ZM498.843 281.359C501.91 283.129 506.883 283.129 509.95 281.359C513.017 279.588 513.017 276.717 509.95 274.947C506.883 273.176 501.91 273.176 498.843 274.947C495.776 276.717 495.776 279.588 498.843 281.359ZM437.725 194.814C434.658 196.585 429.686 196.585 426.619 194.814C423.551 193.044 423.551 190.173 426.619 188.402C429.686 186.631 434.658 186.631 437.725 188.402C440.792 190.173 440.792 193.044 437.725 194.814ZM368.351 228.451C371.418 230.222 376.391 230.222 379.458 228.451C382.525 226.68 382.525 223.81 379.458 222.039C376.391 220.268 371.418 220.268 368.351 222.039C365.284 223.81 365.284 226.68 368.351 228.451ZM548.794 258.934C545.727 260.705 540.755 260.705 537.688 258.934C534.62 257.164 534.62 254.293 537.688 252.522C540.755 250.752 545.727 250.752 548.794 252.522C551.861 254.293 551.861 257.164 548.794 258.934ZM479.42 292.573C482.487 294.343 487.46 294.343 490.527 292.573C493.594 290.802 493.594 287.931 490.527 286.161C487.46 284.39 482.487 284.39 479.42 286.161C476.353 287.931 476.353 290.802 479.42 292.573ZM475.661 194.287C472.594 196.058 467.622 196.058 464.555 194.287C461.488 192.517 461.488 189.646 464.555 187.875C467.622 186.105 472.594 186.105 475.661 187.875C478.729 189.646 478.729 192.517 475.661 194.287ZM406.286 227.925C409.353 229.696 414.326 229.696 417.393 227.925C420.46 226.155 420.46 223.284 417.393 221.513C414.326 219.743 409.353 219.743 406.286 221.513C403.219 223.284 403.219 226.155 406.286 227.925ZM586.73 258.406C583.663 260.177 578.69 260.177 575.623 258.406C572.556 256.636 572.556 253.765 575.623 251.994C578.69 250.224 583.663 250.224 586.73 251.994C589.797 253.765 589.797 256.636 586.73 258.406ZM517.354 292.046C520.422 293.816 525.394 293.816 528.461 292.046C531.528 290.275 531.528 287.404 528.461 285.634C525.394 283.863 520.422 283.863 517.354 285.634C514.287 287.404 514.287 290.275 517.354 292.046ZM456.237 205.501C453.17 207.272 448.197 207.272 445.13 205.501C442.063 203.73 442.063 200.86 445.13 199.089C448.197 197.318 453.17 197.318 456.237 199.089C459.304 200.86 459.304 203.73 456.237 205.501ZM386.862 239.138C389.93 240.909 394.902 240.909 397.969 239.138C401.036 237.367 401.036 234.497 397.969 232.726C394.902 230.955 389.93 230.955 386.862 232.726C383.795 234.497 383.795 237.367 386.862 239.138ZM567.306 269.62C564.239 271.391 559.266 271.391 556.199 269.62C553.132 267.85 553.132 264.979 556.199 263.208C559.266 261.438 564.238 261.438 567.306 263.208C570.373 264.979 570.373 267.85 567.306 269.62ZM497.931 303.258C500.998 305.029 505.971 305.029 509.038 303.258C512.105 301.488 512.105 298.617 509.038 296.846C505.971 295.076 500.998 295.076 497.931 296.846C494.864 298.617 494.864 301.488 497.931 303.258ZM494.173 204.973C491.106 206.744 486.133 206.744 483.066 204.973C479.999 203.202 479.999 200.332 483.066 198.561C486.133 196.79 491.106 196.79 494.173 198.561C497.24 200.332 497.24 203.202 494.173 204.973ZM424.797 238.612C427.864 240.383 432.836 240.383 435.904 238.612C438.971 236.842 438.971 233.971 435.904 232.2C432.836 230.43 427.864 230.43 424.797 232.2C421.73 233.971 421.73 236.842 424.797 238.612ZM605.242 269.093C602.175 270.864 597.202 270.864 594.135 269.093C591.068 267.323 591.068 264.452 594.135 262.681C597.202 260.911 602.175 260.911 605.242 262.681C608.309 264.452 608.309 267.323 605.242 269.093ZM535.866 302.732C538.933 304.503 543.906 304.503 546.973 302.732C550.04 300.962 550.04 298.091 546.973 296.32C543.906 294.55 538.933 294.55 535.866 296.32C532.799 298.091 532.799 300.962 535.866 302.732ZM474.748 216.187C471.681 217.957 466.708 217.957 463.641 216.187C460.574 214.416 460.574 211.545 463.641 209.775C466.708 208.004 471.681 208.004 474.748 209.775C477.815 211.545 477.815 214.416 474.748 216.187ZM405.374 249.825C408.441 251.596 413.413 251.596 416.481 249.825C419.548 248.054 419.548 245.184 416.481 243.413C413.413 241.642 408.441 241.642 405.374 243.413C402.307 245.184 402.307 248.054 405.374 249.825ZM585.817 280.307C582.75 282.078 577.777 282.078 574.71 280.307C571.643 278.536 571.643 275.666 574.71 273.895C577.777 272.124 582.75 272.124 585.817 273.895C588.884 275.666 588.884 278.536 585.817 280.307ZM516.443 313.945C519.51 315.716 524.482 315.716 527.55 313.945C530.617 312.175 530.617 309.304 527.55 307.533C524.482 305.763 519.51 305.763 516.443 307.533C513.376 309.304 513.376 312.175 516.443 313.945ZM512.684 215.66C509.617 217.431 504.645 217.431 501.578 215.66C498.51 213.889 498.51 211.019 501.578 209.248C504.645 207.477 509.617 207.477 512.684 209.248C515.751 211.019 515.751 213.889 512.684 215.66ZM443.309 249.299C446.376 251.07 451.348 251.07 454.416 249.299C457.483 247.528 457.483 244.658 454.416 242.887C451.348 241.116 446.376 241.116 443.309 242.887C440.242 244.658 440.242 247.528 443.309 249.299ZM623.753 279.78C620.686 281.551 615.714 281.551 612.647 279.78C609.579 278.01 609.579 275.139 612.647 273.368C615.714 271.598 620.686 271.598 623.753 273.368C626.821 275.139 626.821 278.01 623.753 279.78ZM554.377 313.419C557.444 315.19 562.417 315.19 565.484 313.419C568.551 311.649 568.551 308.778 565.484 307.007C562.417 305.237 557.444 305.237 554.377 307.007C551.31 308.778 551.31 311.649 554.377 313.419ZM493.26 226.874C490.193 228.644 485.22 228.644 482.153 226.874C479.086 225.103 479.086 222.232 482.153 220.462C485.22 218.691 490.193 218.691 493.26 220.462C496.327 222.232 496.327 225.103 493.26 226.874ZM423.886 260.512C426.953 262.282 431.925 262.282 434.993 260.512C438.06 258.741 438.06 255.87 434.993 254.1C431.925 252.329 426.953 252.329 423.886 254.1C420.819 255.87 420.819 258.741 423.886 260.512ZM604.329 290.994C601.262 292.765 596.289 292.765 593.222 290.994C590.155 289.223 590.155 286.353 593.222 284.582C596.289 282.811 601.262 282.811 604.329 284.582C607.396 286.353 607.396 289.223 604.329 290.994ZM534.954 324.632C538.021 326.403 542.994 326.403 546.061 324.632C549.128 322.861 549.128 319.991 546.061 318.22C542.994 316.449 538.021 316.449 534.954 318.22C531.887 319.991 531.887 322.861 534.954 324.632Z" fill="url(#paint1_linear_5564_2966)"/>
<path opacity="0.26" d="M578.29 284.828C578.066 284.958 577.836 285.09 577.612 285.219C559.52 295.58 539.33 303.856 518.07 310.011C497.801 315.878 479.287 323.693 463.211 332.974C451.809 339.558 441.632 346.879 432.933 354.764C423.289 363.505 411.811 371.838 398.518 379.564C398.31 379.684 398.113 379.799 397.907 379.918C308.791 431.369 172.916 436.273 93.0381 390.814C12.5382 345 20.2806 265.531 110.035 213.711C114.17 211.324 118.406 209.038 122.735 206.854C123.013 206.713 123.282 206.568 123.54 206.419C127.371 204.207 129.028 201.064 127.745 198.271C114.706 169.889 129.934 136.545 172.011 112.252C232.035 77.5966 323.957 74.4851 377.328 105.299C378.14 105.768 379.423 105.867 380.578 105.557C454.667 85.6798 540.387 91.1378 595.503 123.365C667.53 165.481 659.733 237.81 578.29 284.828Z" fill="url(#paint2_linear_5564_2966)"/>
<path d="M378.6 110.601L220.47 19.3047L161.218 53.5139L319.348 144.81L378.6 110.601Z" fill="#C13333"/>
<path d="M317.176 137.872L173.235 54.7674L222.662 26.2305L366.604 109.335L317.176 137.872ZM176.735 54.7674L317.176 135.851L363.103 109.335L222.662 28.2515L176.735 54.7674Z" fill="#991C1C"/>
<path d="M236.454 35.2175L234.704 34.207L187.027 61.7334L188.777 62.7439L236.454 35.2175Z" fill="#991C1C"/>
<path d="M249.383 42.6814L247.633 41.6709L199.956 69.1973L201.706 70.2078L249.383 42.6814Z" fill="#991C1C"/>
<path d="M262.311 50.1453L260.561 49.1348L212.884 76.6611L214.634 77.6716L262.311 50.1453Z" fill="#991C1C"/>
<path d="M275.24 57.6101L273.49 56.5996L225.813 84.126L227.563 85.1365L275.24 57.6101Z" fill="#991C1C"/>
<path d="M288.169 65.075L286.419 64.0645L238.742 91.5908L240.492 92.6013L288.169 65.075Z" fill="#991C1C"/>
<path d="M301.097 72.5388L299.347 71.5283L251.67 99.0547L253.42 100.065L301.097 72.5388Z" fill="#991C1C"/>
<path d="M314.026 80.0027L312.275 78.9922L264.598 106.519L266.349 107.529L314.026 80.0027Z" fill="#991C1C"/>
<path d="M326.954 87.4675L325.204 86.457L277.527 113.983L279.277 114.994L326.954 87.4675Z" fill="#991C1C"/>
<path d="M339.883 94.9324L338.133 93.9219L290.456 121.448L292.206 122.459L339.883 94.9324Z" fill="#991C1C"/>
<path d="M352.812 102.396L351.061 101.386L303.384 128.912L305.134 129.923L352.812 102.396Z" fill="#991C1C"/>
<path d="M319.348 144.81L161.218 53.5137L161.218 121.932L319.348 213.229L319.348 144.81Z" fill="#E8615B"/>
<path d="M312.557 203.973L168.032 120.532L168.032 62.7842L312.557 146.226L312.557 203.973ZM170.366 119.184L310.223 199.931L310.223 147.573L170.366 66.8262L170.366 119.184Z" fill="#C13333"/>
<path d="M183.294 72.944L180.961 71.5967L180.961 126.649L183.294 127.997L183.294 72.944Z" fill="#C13333"/>
<path d="M196.223 80.4089L193.89 79.0615L193.89 134.114L196.223 135.462L196.223 80.4089Z" fill="#C13333"/>
<path d="M209.151 87.8727L206.818 86.5254L206.818 141.578L209.151 142.925L209.151 87.8727Z" fill="#C13333"/>
<path d="M222.057 95.3229L219.723 93.9756L219.723 149.028L222.057 150.376L222.057 95.3229Z" fill="#C13333"/>
<path d="M234.985 102.788L232.652 101.44L232.652 156.493L234.985 157.841L234.985 102.788Z" fill="#C13333"/>
<path d="M247.914 110.252L245.58 108.904L245.58 163.957L247.914 165.304L247.914 110.252Z" fill="#C13333"/>
<path d="M260.843 117.716L258.509 116.369L258.509 171.422L260.843 172.769L260.843 117.716Z" fill="#C13333"/>
<path d="M273.771 125.181L271.438 123.834L271.438 178.887L273.771 180.234L273.771 125.181Z" fill="#C13333"/>
<path d="M286.7 132.645L284.366 131.298L284.366 186.351L286.7 187.698L286.7 132.645Z" fill="#C13333"/>
<path d="M299.628 140.109L297.294 138.762L297.294 193.814L299.628 195.162L299.628 140.109Z" fill="#C13333"/>
<path d="M319.372 213.239L161.242 121.942L161.242 190.361L319.372 281.657L319.372 213.239Z" fill="#476B9E"/>
<path d="M312.58 272.4L168.056 188.958L168.056 131.211L312.58 214.652L312.58 272.4ZM170.389 187.611L310.247 268.358L310.247 216L170.389 135.253L170.389 187.611Z" fill="#2F4A7F"/>
<path d="M183.318 141.396L180.984 140.049L180.984 195.102L183.318 196.449L183.318 141.396Z" fill="#2F4A7F"/>
<path d="M196.247 148.86L193.913 147.513L193.913 202.565L196.247 203.913L196.247 148.86Z" fill="#2F4A7F"/>
<path d="M209.175 156.325L206.842 154.978L206.842 210.03L209.175 211.378L209.175 156.325Z" fill="#2F4A7F"/>
<path d="M222.104 163.79L219.77 162.442L219.77 217.495L222.104 218.842L222.104 163.79Z" fill="#2F4A7F"/>
<path d="M235.009 171.24L232.676 169.893L232.676 224.945L235.009 226.293L235.009 171.24Z" fill="#2F4A7F"/>
<path d="M247.938 178.704L245.604 177.356L245.604 232.409L247.938 233.757L247.938 178.704Z" fill="#2F4A7F"/>
<path d="M260.866 186.169L258.532 184.821L258.532 239.874L260.866 241.221L260.866 186.169Z" fill="#2F4A7F"/>
<path d="M273.795 193.633L271.461 192.285L271.461 247.338L273.795 248.685L273.795 193.633Z" fill="#2F4A7F"/>
<path d="M286.724 201.097L284.39 199.75L284.39 254.803L286.724 256.15L286.724 201.097Z" fill="#2F4A7F"/>
<path d="M299.652 208.562L297.319 207.215L297.319 262.268L299.652 263.615L299.652 208.562Z" fill="#2F4A7F"/>
<path d="M536.73 201.941L378.6 110.645L319.348 144.854L477.478 236.15L536.73 201.941Z" fill="#CE7602"/>
<path d="M475.306 229.212L331.365 146.107L380.792 117.57L524.734 200.675L475.306 229.212ZM334.866 146.107L475.306 227.191L521.233 200.675L380.792 119.591L334.866 146.107Z" fill="#8D5000"/>
<path d="M394.584 126.557L392.834 125.547L345.157 153.073L346.907 154.084L394.584 126.557Z" fill="#8D5000"/>
<path d="M407.513 134.021L405.763 133.011L358.086 160.537L359.836 161.548L407.513 134.021Z" fill="#8D5000"/>
<path d="M420.442 141.485L418.691 140.475L371.014 168.001L372.764 169.011L420.442 141.485Z" fill="#8D5000"/>
<path d="M433.37 148.95L431.62 147.939L383.943 175.466L385.693 176.476L433.37 148.95Z" fill="#8D5000"/>
<path d="M446.299 156.415L444.549 155.404L396.872 182.931L398.622 183.941L446.299 156.415Z" fill="#8D5000"/>
<path d="M459.227 163.879L457.477 162.868L409.8 190.395L411.55 191.405L459.227 163.879Z" fill="#8D5000"/>
<path d="M472.156 171.343L470.405 170.332L422.728 197.858L424.479 198.869L472.156 171.343Z" fill="#8D5000"/>
<path d="M485.085 178.807L483.334 177.797L435.657 205.323L437.408 206.334L485.085 178.807Z" fill="#8D5000"/>
<path d="M498.013 186.272L496.263 185.262L448.586 212.788L450.336 213.799L498.013 186.272Z" fill="#8D5000"/>
<path d="M510.942 193.736L509.192 192.726L461.514 220.252L463.265 221.262L510.942 193.736Z" fill="#8D5000"/>
<path d="M477.478 236.107L319.348 144.811L319.348 213.229L477.478 304.525L477.478 236.107Z" fill="#EFAC37"/>
<path d="M470.383 294.745L326.442 211.64L326.442 154.566L470.383 237.671L470.383 294.745ZM328.192 210.63L468.633 291.713L468.633 238.681L328.192 157.598L328.192 210.63Z" fill="#CE7602"/>
<path d="M341.121 164.065L339.371 163.055L339.371 218.107L341.121 219.118L341.121 164.065Z" fill="#CE7602"/>
<path d="M354.05 171.53L352.3 170.52L352.3 225.572L354.05 226.583L354.05 171.53Z" fill="#CE7602"/>
<path d="M366.978 178.994L365.228 177.983L365.228 233.036L366.978 234.047L366.978 178.994Z" fill="#CE7602"/>
<path d="M379.907 186.459L378.157 185.448L378.157 240.501L379.907 241.511L379.907 186.459Z" fill="#CE7602"/>
<path d="M392.836 193.923L391.085 192.912L391.085 247.965L392.836 248.975L392.836 193.923Z" fill="#CE7602"/>
<path d="M405.764 201.386L404.014 200.376L404.014 255.429L405.764 256.439L405.764 201.386Z" fill="#CE7602"/>
<path d="M418.693 208.851L416.942 207.841L416.942 262.894L418.693 263.904L418.693 208.851Z" fill="#CE7602"/>
<path d="M431.621 216.316L429.871 215.306L429.871 270.358L431.621 271.369L431.621 216.316Z" fill="#CE7602"/>
<path d="M444.55 223.78L442.8 222.77L442.8 277.822L444.55 278.833L444.55 223.78Z" fill="#CE7602"/>
<path d="M457.478 231.245L455.728 230.234L455.728 285.287L457.478 286.298L457.478 231.245Z" fill="#CE7602"/>
<path d="M536.841 201.897L477.502 236.156L477.502 304.575L536.841 270.315L536.841 201.897Z" fill="#DD9C2B"/>
<path d="M532.189 267.34L484.596 294.818L484.596 237.744L532.189 210.266L532.189 267.34ZM485.175 292.463L531.611 265.653L531.611 212.621L485.175 239.431L485.175 292.463Z" fill="#985600"/>
<path d="M497.346 230.293L495.596 231.304L495.596 286.356L497.346 285.346L497.346 230.293Z" fill="#985600"/>
<path d="M510.275 222.828L508.524 223.839L508.524 278.892L510.275 277.881L510.275 222.828Z" fill="#985600"/>
<path d="M523.203 215.364L521.453 216.375L521.453 271.428L523.203 270.417L523.203 215.364Z" fill="#985600"/>
<path d="M477.069 171.378L318.939 80.0811L318.939 148.5L477.069 239.796L477.069 171.378Z" fill="#7DB6F9"/>
<path d="M469.975 230.04L326.034 146.935L326.034 89.8613L469.975 172.966L469.975 230.04ZM327.784 145.925L468.225 227.008L468.225 173.976L327.784 92.8929L327.784 145.925Z" fill="#428FDB"/>
<path d="M340.713 99.3591L338.963 98.3486L338.963 153.401L340.713 154.412L340.713 99.3591Z" fill="#428FDB"/>
<path d="M353.641 106.824L351.891 105.813L351.891 160.866L353.641 161.877L353.641 106.824Z" fill="#428FDB"/>
<path d="M366.57 114.288L364.819 113.277L364.819 168.33L366.57 169.341L366.57 114.288Z" fill="#428FDB"/>
<path d="M379.498 121.753L377.748 120.742L377.748 175.795L379.498 176.805L379.498 121.753Z" fill="#428FDB"/>
<path d="M392.427 129.217L390.677 128.206L390.677 183.259L392.427 184.269L392.427 129.217Z" fill="#428FDB"/>
<path d="M405.356 136.681L403.605 135.671L403.605 190.724L405.356 191.734L405.356 136.681Z" fill="#428FDB"/>
<path d="M418.284 144.145L416.534 143.135L416.534 198.188L418.284 199.198L418.284 144.145Z" fill="#428FDB"/>
<path d="M431.213 151.61L429.463 150.6L429.463 205.652L431.213 206.663L431.213 151.61Z" fill="#428FDB"/>
<path d="M444.141 159.074L442.391 158.063L442.391 213.116L444.141 214.127L444.141 159.074Z" fill="#428FDB"/>
<path d="M457.07 166.539L455.319 165.528L455.319 220.581L457.07 221.592L457.07 166.539Z" fill="#428FDB"/>
<path d="M536.333 137.169L378.203 45.8721L318.951 80.0813L477.081 171.378L536.333 137.169Z" fill="#428FDB"/>
<path d="M474.889 164.452L330.947 81.3474L380.375 52.8105L524.316 135.915L474.889 164.452ZM334.448 81.3474L474.889 162.431L520.816 135.915L380.375 54.8316L334.448 81.3474Z" fill="#195897"/>
<path d="M394.168 61.7966L392.417 60.7861L344.74 88.3125L346.491 89.323L394.168 61.7966Z" fill="#195897"/>
<path d="M407.096 69.2605L405.346 68.25L357.669 95.7764L359.419 96.7869L407.096 69.2605Z" fill="#195897"/>
<path d="M420.024 76.7254L418.274 75.7148L370.597 103.241L372.347 104.252L420.024 76.7254Z" fill="#195897"/>
<path d="M432.953 84.1892L431.203 83.1787L383.526 110.705L385.276 111.716L432.953 84.1892Z" fill="#195897"/>
<path d="M445.882 91.6541L444.131 90.6436L396.454 118.17L398.205 119.18L445.882 91.6541Z" fill="#195897"/>
<path d="M458.81 99.1179L457.06 98.1074L409.383 125.634L411.133 126.644L458.81 99.1179Z" fill="#195897"/>
<path d="M471.739 106.583L469.989 105.572L422.312 133.099L424.062 134.109L471.739 106.583Z" fill="#195897"/>
<path d="M484.668 114.047L482.917 113.036L435.24 140.563L436.991 141.573L484.668 114.047Z" fill="#195897"/>
<path d="M497.596 121.511L495.846 120.501L448.169 148.027L449.919 149.038L497.596 121.511Z" fill="#195897"/>
<path d="M510.525 128.975L508.774 127.965L461.097 155.491L462.847 156.502L510.525 128.975Z" fill="#195897"/>
<path d="M536.409 137.118L477.07 171.378L477.07 239.796L536.409 205.537L536.409 137.118Z" fill="#6DA4E4"/>
<path d="M531.758 202.562L484.164 230.04L484.164 172.966L531.758 145.488L531.758 202.562ZM484.743 227.684L531.179 200.875L531.179 147.843L484.743 174.653L484.743 227.684Z" fill="#2F79C1"/>
<path d="M496.914 165.515L495.164 166.525L495.164 221.578L496.914 220.568L496.914 165.515Z" fill="#2F79C1"/>
<path d="M509.843 158.05L508.093 159.061L508.093 214.113L509.843 213.103L509.843 158.05Z" fill="#2F79C1"/>
<path d="M522.771 150.586L521.021 151.597L521.021 206.649L522.771 205.639L522.771 150.586Z" fill="#2F79C1"/>
<path d="M477.502 304.561L319.372 213.265L319.372 281.683L477.502 372.98L477.502 304.561Z" fill="#7DB6F9"/>
<path d="M470.407 363.223L326.466 280.119L326.466 223.045L470.407 306.149L470.407 363.223ZM328.216 279.108L468.657 360.192L468.657 307.16L328.216 226.076L328.216 279.108Z" fill="#428FDB"/>
<path d="M341.145 232.543L339.395 231.532L339.395 286.585L341.145 287.595L341.145 232.543Z" fill="#428FDB"/>
<path d="M354.074 240.008L352.323 238.997L352.323 294.05L354.074 295.06L354.074 240.008Z" fill="#428FDB"/>
<path d="M367.002 247.471L365.251 246.461L365.251 301.514L367.002 302.524L367.002 247.471Z" fill="#428FDB"/>
<path d="M379.93 254.935L378.18 253.925L378.18 308.978L379.93 309.988L379.93 254.935Z" fill="#428FDB"/>
<path d="M392.859 262.4L391.109 261.39L391.109 316.442L392.859 317.453L392.859 262.4Z" fill="#428FDB"/>
<path d="M405.788 269.865L404.038 268.854L404.038 323.907L405.788 324.918L405.788 269.865Z" fill="#428FDB"/>
<path d="M418.716 277.329L416.966 276.318L416.966 331.371L418.716 332.382L418.716 277.329Z" fill="#428FDB"/>
<path d="M431.645 284.794L429.895 283.783L429.895 338.836L431.645 339.846L431.645 284.794Z" fill="#428FDB"/>
<path d="M444.574 292.258L442.824 291.247L442.824 346.3L444.574 347.31L444.574 292.258Z" fill="#428FDB"/>
<path d="M457.502 299.721L455.752 298.711L455.752 353.764L457.502 354.774L457.502 299.721Z" fill="#428FDB"/>
<path d="M536.841 270.42L477.502 304.68L477.502 373.098L536.841 338.839L536.841 270.42Z" fill="#6DA4E4"/>
<path d="M532.19 335.863L484.596 363.341L484.596 306.268L532.19 278.79L532.19 335.863ZM485.175 360.986L531.611 334.176L531.611 281.145L485.175 307.954L485.175 360.986Z" fill="#2F79C1"/>
<path d="M497.346 298.817L495.596 299.827L495.596 354.88L497.346 353.869L497.346 298.817Z" fill="#2F79C1"/>
<path d="M510.275 291.352L508.524 292.362L508.524 347.415L510.275 346.405L510.275 291.352Z" fill="#2F79C1"/>
<path d="M523.203 283.888L521.453 284.898L521.453 339.951L523.203 338.941L523.203 283.888Z" fill="#2F79C1"/>
<path d="M320.541 212.897L162.411 121.601L103.159 155.81L261.289 247.106L320.541 212.897Z" fill="#CE7602"/>
<path d="M259.117 240.168L115.176 157.063L164.603 128.526L308.544 211.631L259.117 240.168ZM118.676 157.063L259.117 238.147L305.044 211.631L164.603 130.547L118.676 157.063Z" fill="#8D5000"/>
<path d="M178.395 137.513L176.645 136.503L128.968 164.029L130.718 165.04L178.395 137.513Z" fill="#8D5000"/>
<path d="M191.324 144.977L189.573 143.967L141.896 171.493L143.647 172.504L191.324 144.977Z" fill="#8D5000"/>
<path d="M204.252 152.441L202.502 151.431L154.825 178.957L156.575 179.968L204.252 152.441Z" fill="#8D5000"/>
<path d="M217.181 159.906L215.431 158.896L167.754 186.422L169.504 187.432L217.181 159.906Z" fill="#8D5000"/>
<path d="M230.11 167.371L228.359 166.36L180.682 193.887L182.433 194.897L230.11 167.371Z" fill="#8D5000"/>
<path d="M243.038 174.835L241.288 173.824L193.611 201.351L195.361 202.361L243.038 174.835Z" fill="#8D5000"/>
<path d="M255.967 182.299L254.216 181.288L206.539 208.814L208.29 209.825L255.967 182.299Z" fill="#8D5000"/>
<path d="M268.895 189.763L267.145 188.753L219.468 216.279L221.218 217.29L268.895 189.763Z" fill="#8D5000"/>
<path d="M281.824 197.228L280.074 196.218L232.397 223.744L234.147 224.755L281.824 197.228Z" fill="#8D5000"/>
<path d="M294.752 204.692L293.002 203.682L245.325 231.208L247.075 232.219L294.752 204.692Z" fill="#8D5000"/>
<path d="M261.289 247.063L103.159 155.767L103.159 224.185L261.289 315.482L261.289 247.063Z" fill="#EFAC37"/>
<path d="M254.194 305.701L110.253 222.596L110.253 165.522L254.194 248.627L254.194 305.701ZM112.003 221.586L252.444 302.669L252.444 249.638L112.003 168.554L112.003 221.586Z" fill="#CE7602"/>
<path d="M124.932 175.021L123.182 174.011L123.182 229.063L124.932 230.074L124.932 175.021Z" fill="#CE7602"/>
<path d="M137.86 182.486L136.11 181.476L136.11 236.528L137.86 237.539L137.86 182.486Z" fill="#CE7602"/>
<path d="M150.789 189.95L149.039 188.939L149.039 243.992L150.789 245.003L150.789 189.95Z" fill="#CE7602"/>
<path d="M163.718 197.415L161.968 196.404L161.968 251.457L163.718 252.468L163.718 197.415Z" fill="#CE7602"/>
<path d="M176.647 204.879L174.896 203.868L174.896 258.921L176.647 259.931L176.647 204.879Z" fill="#CE7602"/>
<path d="M189.575 212.343L187.824 211.332L187.824 266.385L189.575 267.395L189.575 212.343Z" fill="#CE7602"/>
<path d="M202.503 219.807L200.753 218.797L200.753 273.85L202.503 274.86L202.503 219.807Z" fill="#CE7602"/>
<path d="M215.432 227.272L213.682 226.262L213.682 281.314L215.432 282.325L215.432 227.272Z" fill="#CE7602"/>
<path d="M228.361 234.736L226.61 233.726L226.61 288.778L228.361 289.789L228.361 234.736Z" fill="#CE7602"/>
<path d="M241.289 242.201L239.539 241.19L239.539 296.243L241.289 297.254L241.289 242.201Z" fill="#CE7602"/>
<path d="M320.652 212.854L261.312 247.113L261.312 315.532L320.652 281.272L320.652 212.854Z" fill="#DD9C2B"/>
<path d="M316 278.297L268.407 305.775L268.407 248.701L316 221.223L316 278.297ZM268.985 303.42L315.421 276.61L315.421 223.578L268.985 250.388L268.985 303.42Z" fill="#985600"/>
<path d="M281.157 241.25L279.407 242.261L279.407 297.313L281.157 296.303L281.157 241.25Z" fill="#985600"/>
<path d="M294.085 233.785L292.335 234.796L292.335 289.849L294.085 288.838L294.085 233.785Z" fill="#985600"/>
<path d="M307.014 226.322L305.263 227.332L305.263 282.385L307.014 281.374L307.014 226.322Z" fill="#985600"/>
<path d="M478.562 304.317L320.432 213.021L261.18 247.23L419.31 338.526L478.562 304.317Z" fill="#547DB8"/>
<path d="M417.138 331.588L273.197 248.483L322.624 219.946L466.565 303.051L417.138 331.588ZM276.697 248.483L417.138 329.567L463.065 303.051L322.624 221.967L276.697 248.483Z" fill="#2C4D7B"/>
<path d="M336.416 228.932L334.666 227.922L286.989 255.448L288.739 256.459L336.416 228.932Z" fill="#2C4D7B"/>
<path d="M349.344 236.397L347.594 235.387L299.917 262.913L301.667 263.924L349.344 236.397Z" fill="#2C4D7B"/>
<path d="M362.273 243.861L360.523 242.851L312.846 270.377L314.596 271.387L362.273 243.861Z" fill="#2C4D7B"/>
<path d="M375.202 251.326L373.452 250.315L325.775 277.842L327.525 278.852L375.202 251.326Z" fill="#2C4D7B"/>
<path d="M388.131 258.791L386.38 257.78L338.703 285.307L340.453 286.317L388.131 258.791Z" fill="#2C4D7B"/>
<path d="M401.059 266.255L399.308 265.244L351.631 292.771L353.382 293.781L401.059 266.255Z" fill="#2C4D7B"/>
<path d="M413.987 273.719L412.237 272.708L364.56 300.234L366.31 301.245L413.987 273.719Z" fill="#2C4D7B"/>
<path d="M426.916 281.183L425.166 280.173L377.489 307.699L379.239 308.71L426.916 281.183Z" fill="#2C4D7B"/>
<path d="M439.845 288.648L438.094 287.638L390.417 315.164L392.168 316.175L439.845 288.648Z" fill="#2C4D7B"/>
<path d="M452.773 296.112L451.023 295.102L403.346 322.628L405.096 323.638L452.773 296.112Z" fill="#2C4D7B"/>
<path d="M478.293 304.527L418.954 338.786L418.954 407.205L478.293 372.945L478.293 304.527Z" fill="#456096"/>
<path d="M473.642 369.97L426.048 397.448L426.048 340.374L473.642 312.896L473.642 369.97ZM426.627 395.093L473.063 368.283L473.063 315.251L426.627 342.061L426.627 395.093Z" fill="#2A457A"/>
<path d="M438.798 332.923L437.048 333.934L437.048 388.986L438.798 387.976L438.798 332.923Z" fill="#2A457A"/>
<path d="M451.727 325.458L449.977 326.469L449.977 381.521L451.727 380.511L451.727 325.458Z" fill="#2A457A"/>
<path d="M464.655 317.994L462.905 319.005L462.905 374.058L464.655 373.047L464.655 317.994Z" fill="#2A457A"/>
<path d="M419.31 338.525L261.18 247.229L261.18 315.647L419.31 406.943L419.31 338.525Z" fill="#476B9E"/>
<path d="M412.519 397.689L267.994 314.247L267.994 256.5L412.519 339.941L412.519 397.689ZM270.327 312.9L410.185 393.647L410.185 341.289L270.327 260.542L270.327 312.9Z" fill="#2F4A7F"/>
<path d="M283.256 266.659L280.923 265.312L280.923 320.364L283.256 321.712L283.256 266.659Z" fill="#2F4A7F"/>
<path d="M296.185 274.124L293.851 272.776L293.851 327.829L296.185 329.176L296.185 274.124Z" fill="#2F4A7F"/>
<path d="M309.113 281.588L306.779 280.24L306.779 335.293L309.113 336.64L309.113 281.588Z" fill="#2F4A7F"/>
<path d="M322.018 289.038L319.685 287.69L319.685 342.743L322.018 344.091L322.018 289.038Z" fill="#2F4A7F"/>
<path d="M334.947 296.503L332.613 295.155L332.613 350.208L334.947 351.555L334.947 296.503Z" fill="#2F4A7F"/>
<path d="M347.876 303.966L345.542 302.619L345.542 357.672L347.876 359.019L347.876 303.966Z" fill="#2F4A7F"/>
<path d="M360.804 311.431L358.471 310.084L358.471 365.137L360.804 366.484L360.804 311.431Z" fill="#2F4A7F"/>
<path d="M373.733 318.896L371.399 317.549L371.399 372.602L373.733 373.949L373.733 318.896Z" fill="#2F4A7F"/>
<path d="M386.662 326.36L384.328 325.013L384.328 380.065L386.662 381.413L386.662 326.36Z" fill="#2F4A7F"/>
<path d="M399.59 333.824L397.256 332.477L397.256 387.529L399.59 388.877L399.59 333.824Z" fill="#2F4A7F"/>
<g style="mix-blend-mode:color-dodge">
<path d="M257.804 148.211C257.804 143.546 254.354 137.758 250.115 135.311C249.836 135.149 249.548 135 249.264 134.871L248.314 134.437L248.379 133.366C248.394 133.108 248.402 132.851 248.402 132.6C248.402 126.36 244.033 118.762 238.659 115.659C236.195 114.236 233.843 113.949 232.038 114.853C230.242 115.751 229.144 117.739 228.95 120.451L228.882 121.393L228.043 120.779C227.689 120.52 227.328 120.283 226.972 120.078C222.512 117.503 218.881 119.624 218.881 124.805C218.881 129.986 222.492 136.259 226.929 138.848L227.075 138.932L250.037 152.191L250.157 152.26C254.374 154.67 257.804 152.854 257.804 148.211Z" fill="#484848"/>
</g>
<g style="mix-blend-mode:color-dodge">
<path d="M199.126 250.64C199.126 245.974 195.677 240.187 191.437 237.739C191.158 237.578 190.87 237.429 190.586 237.299L189.636 236.866L189.701 235.794C189.716 235.537 189.724 235.279 189.724 235.028C189.724 228.788 185.355 221.19 179.982 218.088C177.517 216.665 175.165 216.378 173.361 217.282C171.564 218.179 170.467 220.168 170.272 222.88L170.204 223.821L169.366 223.207C169.011 222.949 168.651 222.712 168.295 222.507C163.834 219.931 160.203 222.053 160.203 227.233C160.203 232.414 163.814 238.688 168.251 241.276L168.398 241.361L191.359 254.619L191.479 254.689C195.697 257.099 199.126 255.283 199.126 250.64Z" fill="#484848"/>
</g>
<g style="mix-blend-mode:color-dodge">
<path d="M362.548 347.387C362.548 342.722 359.098 336.934 354.859 334.486C354.58 334.325 354.292 334.176 354.007 334.046L353.058 333.613L353.123 332.542C353.138 332.284 353.146 332.026 353.146 331.775C353.146 325.535 348.777 317.937 343.403 314.835C340.938 313.412 338.587 313.125 336.782 314.029C334.986 314.926 333.888 316.915 333.694 319.627L333.626 320.569L332.787 319.954C332.433 319.696 332.072 319.459 331.716 319.254C327.256 316.678 323.625 318.8 323.625 323.98C323.625 329.161 327.236 335.435 331.673 338.023L331.819 338.108L354.781 351.367L354.901 351.436C359.118 353.846 362.548 352.03 362.548 347.387Z" fill="#484848"/>
</g>
<g style="mix-blend-mode:color-dodge">
<path d="M414.84 239.572C414.84 234.906 411.39 229.118 407.151 226.671C406.872 226.51 406.584 226.361 406.299 226.231L405.35 225.798L405.415 224.726C405.43 224.469 405.438 224.211 405.438 223.96C405.438 217.72 401.069 210.122 395.695 207.02C393.23 205.596 390.879 205.309 389.074 206.213C387.278 207.111 386.18 209.099 385.986 211.812L385.918 212.753L385.079 212.139C384.725 211.881 384.364 211.644 384.008 211.438C379.548 208.863 375.917 210.984 375.917 216.165C375.917 221.346 379.528 227.619 383.965 230.208L384.111 230.292L407.073 243.551L407.193 243.62C411.41 246.03 414.84 244.214 414.84 239.572Z" fill="#484848"/>
</g>
<g style="mix-blend-mode:color-dodge">
<path d="M414.742 174.182C414.742 169.516 411.292 163.729 407.053 161.281C406.774 161.12 406.486 160.971 406.202 160.841L405.252 160.408L405.317 159.336C405.332 159.079 405.34 158.821 405.34 158.57C405.34 152.33 400.971 144.732 395.597 141.63C393.132 140.207 390.781 139.92 388.976 140.824C387.18 141.721 386.082 143.71 385.888 146.422L385.82 147.363L384.981 146.749C384.627 146.491 384.266 146.254 383.91 146.049C379.45 143.473 375.819 145.595 375.819 150.775C375.819 155.956 379.43 162.23 383.867 164.818L384.013 164.903L406.975 178.161L407.095 178.231C411.312 180.641 414.742 178.825 414.742 174.182Z" fill="#484848"/>
</g>
<g style="mix-blend-mode:multiply" opacity="0.5" filter="url(#filter0_f_5564_2966)">
<path d="M159.153 143.125C159.275 143.195 159.397 143.295 159.519 143.424C159.641 143.541 159.758 143.697 159.869 143.89L161.911 147.55C161.017 148.383 159.895 148.755 158.544 148.667C157.203 148.574 155.613 147.996 153.774 146.934C152.088 145.961 150.574 144.758 149.233 143.327C147.902 141.89 146.77 140.321 145.835 138.62C144.911 136.914 144.199 135.119 143.702 133.236C143.204 131.342 142.955 129.456 142.955 127.579C142.955 125.667 143.224 124.069 143.763 122.785C144.301 121.488 145.058 120.541 146.033 119.943C147.008 119.345 148.177 119.116 149.538 119.257C150.899 119.397 152.398 119.94 154.033 120.884C154.866 121.365 155.648 121.905 156.38 122.503C157.121 123.095 157.812 123.729 158.452 124.403C159.092 125.066 159.681 125.764 160.22 126.497C160.758 127.23 161.236 127.963 161.652 128.697L159.915 130.386C159.803 130.485 159.671 130.562 159.519 130.615C159.366 130.656 159.153 130.597 158.879 130.439C158.696 130.333 158.523 130.186 158.361 129.999C158.198 129.811 158.025 129.6 157.843 129.365C157.66 129.119 157.457 128.855 157.233 128.573C157.02 128.286 156.761 127.99 156.456 127.685C156.161 127.374 155.811 127.054 155.404 126.726C155.008 126.403 154.541 126.087 154.003 125.776C153.149 125.283 152.367 125.013 151.656 124.966C150.955 124.925 150.345 125.107 149.827 125.512C149.319 125.911 148.923 126.538 148.639 127.395C148.364 128.245 148.227 129.321 148.227 130.623C148.227 131.937 148.38 133.192 148.684 134.389C148.999 135.591 149.421 136.697 149.949 137.705C150.488 138.708 151.112 139.597 151.824 140.371C152.535 141.145 153.297 141.767 154.109 142.236C154.577 142.506 155.003 142.729 155.389 142.905C155.775 143.069 156.136 143.189 156.471 143.266C156.806 143.33 157.121 143.348 157.416 143.318C157.711 143.277 158.01 143.186 158.315 143.046C158.437 142.999 158.569 142.981 158.711 142.993C158.853 142.993 159.001 143.037 159.153 143.125Z" fill="#352929"/>
<path d="M185.444 152.11C185.444 153.964 185.165 155.527 184.606 156.8C184.057 158.078 183.28 159.02 182.275 159.624C181.269 160.216 180.055 160.436 178.633 160.283C177.221 160.137 175.651 159.565 173.924 158.568C172.197 157.571 170.622 156.327 169.2 154.838C167.778 153.348 166.559 151.723 165.543 149.964C164.537 148.198 163.755 146.357 163.196 144.439C162.648 142.527 162.374 140.644 162.374 138.791C162.374 136.937 162.648 135.371 163.196 134.093C163.755 132.82 164.537 131.887 165.543 131.295C166.559 130.708 167.778 130.491 169.2 130.644C170.622 130.796 172.197 131.371 173.924 132.368C175.651 133.365 177.221 134.612 178.633 136.107C180.055 137.597 181.269 139.219 182.275 140.972C183.28 142.726 184.057 144.559 184.606 146.471C185.165 148.389 185.444 150.269 185.444 152.11ZM180.172 149.066C180.172 147.8 180.029 146.58 179.745 145.407C179.461 144.222 179.049 143.122 178.511 142.107C177.982 141.099 177.332 140.184 176.56 139.362C175.788 138.541 174.909 137.846 173.924 137.277C172.928 136.703 172.04 136.377 171.257 136.301C170.485 136.23 169.83 136.392 169.292 136.785C168.763 137.184 168.357 137.811 168.073 138.667C167.788 139.512 167.646 140.568 167.646 141.835C167.646 143.113 167.788 144.345 168.073 145.53C168.357 146.703 168.763 147.794 169.292 148.802C169.83 149.817 170.485 150.735 171.257 151.556C172.04 152.371 172.928 153.066 173.924 153.641C174.909 154.21 175.788 154.536 176.56 154.618C177.332 154.688 177.982 154.524 178.511 154.125C179.049 153.732 179.461 153.113 179.745 152.269C180.029 151.412 180.172 150.345 180.172 149.066Z" fill="#352929"/>
<path d="M207.858 152.242L207.858 177.878L205.176 176.33C204.78 176.101 204.445 175.837 204.17 175.538C203.906 175.233 203.642 174.822 203.378 174.306L192.909 152.972C192.95 153.453 192.975 153.913 192.985 154.353C193.006 154.787 193.016 155.192 193.016 155.567L193.016 169.309L188.475 166.687L188.475 141.051L191.187 142.617C191.411 142.746 191.599 142.866 191.751 142.978C191.904 143.089 192.041 143.215 192.163 143.356C192.285 143.485 192.401 143.64 192.513 143.822C192.625 144.004 192.752 144.236 192.894 144.517L203.454 166.01C203.403 165.488 203.368 164.992 203.347 164.523C203.327 164.042 203.317 163.596 203.317 163.186L203.317 149.62L207.858 152.242Z" fill="#352929"/>
<path d="M228.12 168.655L221.872 165.048L221.872 185.969L216.722 182.996L216.722 162.075L210.474 158.468L210.474 153.752L228.12 163.94L228.12 168.655Z" fill="#352929"/>
<path d="M240.298 186.807L238.241 178.598C238.088 178.065 237.926 177.449 237.753 176.751C237.58 176.041 237.408 175.284 237.235 174.481C237.082 175.109 236.92 175.677 236.747 176.188C236.575 176.698 236.412 177.132 236.26 177.49L234.218 183.296L240.298 186.807ZM248.481 201.332L244.488 199.027C244.041 198.769 243.681 198.443 243.406 198.05C243.132 197.645 242.924 197.214 242.781 196.757L241.471 191.531L233.029 186.657L231.719 190.37C231.607 190.634 231.404 190.815 231.109 190.915C230.825 191.009 230.469 190.933 230.042 190.686L226.02 188.364L234.614 167.689L239.886 170.733L248.481 201.332Z" fill="#352929"/>
<path d="M255.412 205.333L250.231 202.342L250.231 176.706L255.412 179.697L255.412 205.333Z" fill="#352929"/>
<path d="M279.078 193.361L279.078 218.997L276.396 217.449C276 217.22 275.665 216.956 275.391 216.657C275.126 216.352 274.862 215.941 274.598 215.425L264.13 194.091C264.17 194.572 264.196 195.032 264.206 195.472C264.226 195.906 264.236 196.311 264.236 196.686L264.236 210.428L259.695 207.806L259.695 182.17L262.408 183.736C262.631 183.865 262.819 183.985 262.972 184.097C263.124 184.208 263.261 184.334 263.383 184.475C263.505 184.604 263.622 184.759 263.733 184.941C263.845 185.123 263.972 185.355 264.114 185.636L274.674 207.129C274.624 206.607 274.588 206.111 274.568 205.642C274.547 205.161 274.537 204.716 274.537 204.305L274.537 190.739L279.078 193.361Z" fill="#352929"/>
<path d="M288.567 203.414L288.567 209.396L295.546 213.425L295.546 217.824L288.567 213.795L288.567 219.901L297.679 225.162L297.679 229.736L283.386 221.484L283.386 195.848L297.679 204.1L297.679 208.675L288.567 203.414Z" fill="#352929"/>
<path d="M308.079 222.157C308.78 222.562 309.374 222.805 309.862 222.887C310.36 222.964 310.766 222.911 311.081 222.729C311.396 222.547 311.624 222.257 311.767 221.858C311.909 221.447 311.98 220.961 311.98 220.398C311.98 219.271 311.66 218.207 311.02 217.204C310.39 216.207 309.41 215.324 308.079 214.556L306.007 213.359L306.007 220.961L308.079 222.157ZM319.02 242.058L314.357 239.365C313.494 238.867 312.874 238.134 312.498 237.166L308.81 227.594C308.638 227.178 308.445 226.837 308.231 226.574C308.018 226.298 307.713 226.046 307.317 225.817L306.007 225.06L306.007 234.544L300.856 231.571L300.856 205.934L308.079 210.104C309.684 211.031 311.05 212.013 312.178 213.051C313.316 214.084 314.24 215.145 314.951 216.236C315.673 217.333 316.196 218.439 316.521 219.553C316.846 220.667 317.008 221.77 317.008 222.861C317.008 223.694 316.912 224.424 316.719 225.052C316.526 225.679 316.241 226.201 315.866 226.618C315.49 227.022 315.022 227.31 314.464 227.48C313.915 227.656 313.28 227.694 312.559 227.594C312.894 227.987 313.209 228.421 313.504 228.896C313.798 229.359 314.062 229.864 314.296 230.409L319.02 242.058Z" fill="#352929"/>
<path d="M326.067 246.126L320.886 243.135L320.886 217.498L326.067 220.489L326.067 246.126Z" fill="#352929"/>
<path d="M346.091 234.197C346.091 234.502 346.045 234.775 345.954 235.015C345.873 235.262 345.756 235.47 345.604 235.64L335.181 246.813L345.756 252.919L345.756 257.494L328.628 247.605L328.628 245.318C328.628 245.048 328.669 244.807 328.75 244.596C328.831 244.373 328.943 244.191 329.085 244.051L339.539 232.842L329.482 227.036L329.482 222.461L346.091 232.051L346.091 234.197Z" fill="#352929"/>
<path d="M360.655 256.295L358.598 248.087C358.445 247.553 358.283 246.937 358.11 246.239C357.937 245.529 357.765 244.773 357.592 243.969C357.44 244.597 357.277 245.166 357.104 245.676C356.932 246.186 356.769 246.62 356.617 246.978L354.575 252.785L360.655 256.295ZM368.838 270.82L364.845 268.515C364.398 268.257 364.038 267.931 363.764 267.538C363.489 267.134 363.281 266.703 363.139 266.245L361.828 261.019L353.386 256.145L352.076 259.858C351.964 260.122 351.761 260.304 351.466 260.403C351.182 260.497 350.826 260.421 350.4 260.175L346.377 257.852L354.971 237.177L360.244 240.221L368.838 270.82Z" fill="#352929"/>
<path d="M384.37 258.866L378.122 255.259L378.122 276.18L372.972 273.207L372.972 252.286L366.724 248.679L366.724 243.963L384.37 254.151L384.37 258.866Z" fill="#352929"/>
<path d="M392.168 284.29L386.987 281.298L386.987 255.662L392.168 258.653L392.168 284.29Z" fill="#352929"/>
<path d="M418.242 286.516C418.242 288.37 417.963 289.933 417.404 291.205C416.855 292.484 416.078 293.425 415.072 294.03C414.067 294.622 412.853 294.842 411.43 294.689C410.018 294.543 408.449 293.971 406.722 292.974C404.995 291.977 403.42 290.733 401.998 289.244C400.576 287.754 399.357 286.129 398.341 284.37C397.335 282.604 396.553 280.763 395.994 278.845C395.446 276.933 395.171 275.05 395.171 273.197C395.171 271.343 395.446 269.777 395.994 268.499C396.553 267.226 397.335 266.293 398.341 265.701C399.357 265.114 400.576 264.897 401.998 265.05C403.42 265.202 404.995 265.777 406.722 266.774C408.449 267.771 410.018 269.018 411.43 270.513C412.853 272.003 414.067 273.625 415.072 275.378C416.078 277.132 416.855 278.965 417.404 280.877C417.963 282.795 418.242 284.675 418.242 286.516ZM412.97 283.472C412.97 282.205 412.827 280.985 412.543 279.812C412.258 278.628 411.847 277.528 411.309 276.513C410.78 275.504 410.13 274.59 409.358 273.768C408.586 272.947 407.707 272.252 406.722 271.683C405.726 271.109 404.837 270.783 404.055 270.707C403.283 270.636 402.628 270.798 402.09 271.191C401.561 271.589 401.155 272.217 400.87 273.073C400.586 273.918 400.444 274.974 400.444 276.241C400.444 277.519 400.586 278.751 400.87 279.936C401.155 281.109 401.561 282.2 402.09 283.208C402.628 284.223 403.283 285.141 404.055 285.962C404.837 286.777 405.726 287.472 406.722 288.047C407.707 288.616 408.586 288.942 409.358 289.024C410.13 289.094 410.78 288.93 411.309 288.531C411.847 288.138 412.258 287.519 412.543 286.675C412.827 285.818 412.97 284.751 412.97 283.472Z" fill="#352929"/>
<path d="M440.656 286.647L440.656 312.284L437.974 310.736C437.578 310.507 437.242 310.243 436.968 309.944C436.704 309.639 436.44 309.228 436.176 308.712L425.707 287.378C425.748 287.859 425.773 288.319 425.783 288.759C425.804 289.193 425.814 289.598 425.814 289.973L425.814 303.715L421.273 301.093L421.273 275.457L423.985 277.023C424.209 277.152 424.397 277.272 424.549 277.383C424.701 277.495 424.839 277.621 424.96 277.762C425.082 277.891 425.199 278.046 425.311 278.228C425.423 278.41 425.55 278.642 425.692 278.923L436.252 300.416C436.201 299.894 436.166 299.398 436.145 298.929C436.125 298.448 436.115 298.002 436.115 297.592L436.115 284.026L440.656 286.647Z" fill="#352929"/>
</g>
<g filter="url(#filter1_d_5564_2966)">
<path d="M157.153 146.125C157.275 146.195 157.397 146.295 157.519 146.424C157.641 146.541 157.758 146.697 157.869 146.89L159.911 150.55C159.017 151.383 157.895 151.755 156.544 151.667C155.203 151.574 153.613 150.996 151.774 149.934C150.088 148.961 148.574 147.758 147.233 146.327C145.902 144.89 144.77 143.321 143.835 141.62C142.911 139.914 142.199 138.119 141.702 136.236C141.204 134.342 140.955 132.456 140.955 130.579C140.955 128.667 141.224 127.069 141.763 125.785C142.301 124.488 143.058 123.541 144.033 122.943C145.008 122.345 146.177 122.116 147.538 122.257C148.899 122.397 150.398 122.94 152.033 123.884C152.866 124.365 153.648 124.905 154.38 125.503C155.121 126.095 155.812 126.729 156.452 127.403C157.092 128.066 157.681 128.764 158.22 129.497C158.758 130.23 159.236 130.963 159.652 131.697L157.915 133.386C157.803 133.485 157.671 133.562 157.519 133.615C157.366 133.656 157.153 133.597 156.879 133.439C156.696 133.333 156.523 133.186 156.361 132.999C156.198 132.811 156.025 132.6 155.843 132.365C155.66 132.119 155.457 131.855 155.233 131.573C155.02 131.286 154.761 130.99 154.456 130.685C154.161 130.374 153.811 130.054 153.404 129.726C153.008 129.403 152.541 129.087 152.003 128.776C151.149 128.283 150.367 128.013 149.656 127.966C148.955 127.925 148.345 128.107 147.827 128.512C147.319 128.911 146.923 129.538 146.639 130.395C146.364 131.245 146.227 132.321 146.227 133.623C146.227 134.937 146.38 136.192 146.684 137.389C146.999 138.591 147.421 139.697 147.949 140.705C148.488 141.708 149.112 142.597 149.824 143.371C150.535 144.145 151.297 144.767 152.109 145.236C152.577 145.506 153.003 145.729 153.389 145.905C153.775 146.069 154.136 146.189 154.471 146.266C154.806 146.33 155.121 146.348 155.416 146.318C155.711 146.277 156.01 146.186 156.315 146.046C156.437 145.999 156.569 145.981 156.711 145.993C156.853 145.993 157.001 146.037 157.153 146.125Z" fill="white"/>
<path d="M183.444 155.11C183.444 156.964 183.165 158.527 182.606 159.8C182.057 161.078 181.28 162.02 180.275 162.624C179.269 163.216 178.055 163.436 176.633 163.283C175.221 163.137 173.651 162.565 171.924 161.568C170.197 160.571 168.622 159.327 167.2 157.838C165.778 156.348 164.559 154.723 163.543 152.964C162.537 151.198 161.755 149.357 161.196 147.439C160.648 145.527 160.374 143.644 160.374 141.791C160.374 139.937 160.648 138.371 161.196 137.093C161.755 135.82 162.537 134.887 163.543 134.295C164.559 133.708 165.778 133.491 167.2 133.644C168.622 133.796 170.197 134.371 171.924 135.368C173.651 136.365 175.221 137.612 176.633 139.107C178.055 140.597 179.269 142.219 180.275 143.972C181.28 145.726 182.057 147.559 182.606 149.471C183.165 151.389 183.444 153.269 183.444 155.11ZM178.172 152.066C178.172 150.8 178.029 149.58 177.745 148.407C177.461 147.222 177.049 146.122 176.511 145.107C175.982 144.099 175.332 143.184 174.56 142.362C173.788 141.541 172.909 140.846 171.924 140.277C170.928 139.703 170.04 139.377 169.257 139.301C168.485 139.23 167.83 139.392 167.292 139.785C166.763 140.184 166.357 140.811 166.073 141.667C165.788 142.512 165.646 143.568 165.646 144.835C165.646 146.113 165.788 147.345 166.073 148.53C166.357 149.703 166.763 150.794 167.292 151.802C167.83 152.817 168.485 153.735 169.257 154.556C170.04 155.371 170.928 156.066 171.924 156.641C172.909 157.21 173.788 157.536 174.56 157.618C175.332 157.688 175.982 157.524 176.511 157.125C177.049 156.732 177.461 156.113 177.745 155.269C178.029 154.412 178.172 153.345 178.172 152.066Z" fill="white"/>
<path d="M205.858 155.242L205.858 180.878L203.176 179.33C202.78 179.101 202.445 178.837 202.17 178.538C201.906 178.233 201.642 177.822 201.378 177.306L190.909 155.972C190.95 156.453 190.975 156.913 190.985 157.353C191.006 157.787 191.016 158.192 191.016 158.567L191.016 172.309L186.475 169.687L186.475 144.051L189.187 145.617C189.411 145.746 189.599 145.866 189.751 145.978C189.904 146.089 190.041 146.215 190.163 146.356C190.285 146.485 190.401 146.64 190.513 146.822C190.625 147.004 190.752 147.236 190.894 147.517L201.454 169.01C201.403 168.488 201.368 167.992 201.347 167.523C201.327 167.042 201.317 166.596 201.317 166.186L201.317 152.62L205.858 155.242Z" fill="white"/>
<path d="M226.12 171.655L219.872 168.048L219.872 188.969L214.722 185.996L214.722 165.075L208.474 161.468L208.474 156.752L226.12 166.94L226.12 171.655Z" fill="white"/>
<path d="M238.298 189.807L236.241 181.598C236.088 181.065 235.926 180.449 235.753 179.751C235.58 179.041 235.408 178.284 235.235 177.481C235.082 178.109 234.92 178.677 234.747 179.188C234.575 179.698 234.412 180.132 234.26 180.49L232.218 186.296L238.298 189.807ZM246.481 204.332L242.488 202.027C242.041 201.769 241.681 201.443 241.406 201.05C241.132 200.645 240.924 200.214 240.781 199.757L239.471 194.531L231.029 189.657L229.719 193.37C229.607 193.634 229.404 193.815 229.109 193.915C228.825 194.009 228.469 193.933 228.042 193.686L224.02 191.364L232.614 170.689L237.886 173.733L246.481 204.332Z" fill="white"/>
<path d="M253.412 208.333L248.231 205.342L248.231 179.706L253.412 182.697L253.412 208.333Z" fill="white"/>
<path d="M277.078 196.361L277.078 221.997L274.396 220.449C274 220.22 273.665 219.956 273.391 219.657C273.126 219.352 272.862 218.941 272.598 218.425L262.13 197.091C262.17 197.572 262.196 198.032 262.206 198.472C262.226 198.906 262.236 199.311 262.236 199.686L262.236 213.428L257.695 210.806L257.695 185.17L260.408 186.736C260.631 186.865 260.819 186.985 260.972 187.097C261.124 187.208 261.261 187.334 261.383 187.475C261.505 187.604 261.622 187.759 261.733 187.941C261.845 188.123 261.972 188.355 262.114 188.636L272.674 210.129C272.624 209.607 272.588 209.111 272.568 208.642C272.547 208.161 272.537 207.716 272.537 207.305L272.537 193.739L277.078 196.361Z" fill="white"/>
<path d="M286.567 206.414L286.567 212.396L293.546 216.425L293.546 220.824L286.567 216.795L286.567 222.901L295.679 228.162L295.679 232.736L281.386 224.484L281.386 198.848L295.679 207.1L295.679 211.675L286.567 206.414Z" fill="white"/>
<path d="M306.079 225.157C306.78 225.562 307.374 225.805 307.862 225.887C308.36 225.964 308.766 225.911 309.081 225.729C309.396 225.547 309.624 225.257 309.767 224.858C309.909 224.447 309.98 223.961 309.98 223.398C309.98 222.271 309.66 221.207 309.02 220.204C308.39 219.207 307.41 218.324 306.079 217.556L304.007 216.359L304.007 223.961L306.079 225.157ZM317.02 245.058L312.357 242.365C311.494 241.867 310.874 241.134 310.498 240.166L306.81 230.594C306.638 230.178 306.445 229.837 306.231 229.574C306.018 229.298 305.713 229.046 305.317 228.817L304.007 228.06L304.007 237.544L298.856 234.571L298.856 208.934L306.079 213.104C307.684 214.031 309.05 215.013 310.178 216.051C311.316 217.084 312.24 218.145 312.951 219.236C313.673 220.333 314.196 221.439 314.521 222.553C314.846 223.667 315.008 224.77 315.008 225.861C315.008 226.694 314.912 227.424 314.719 228.052C314.526 228.679 314.241 229.201 313.866 229.618C313.49 230.022 313.022 230.31 312.464 230.48C311.915 230.656 311.28 230.694 310.559 230.594C310.894 230.987 311.209 231.421 311.504 231.896C311.798 232.359 312.062 232.864 312.296 233.409L317.02 245.058Z" fill="white"/>
<path d="M324.067 249.126L318.886 246.135L318.886 220.498L324.067 223.489L324.067 249.126Z" fill="white"/>
<path d="M344.091 237.197C344.091 237.502 344.045 237.775 343.954 238.015C343.873 238.262 343.756 238.47 343.604 238.64L333.181 249.813L343.756 255.919L343.756 260.494L326.628 250.605L326.628 248.318C326.628 248.048 326.669 247.807 326.75 247.596C326.831 247.373 326.943 247.191 327.085 247.051L337.539 235.842L327.482 230.036L327.482 225.461L344.091 235.051L344.091 237.197Z" fill="white"/>
<path d="M358.655 259.295L356.598 251.087C356.445 250.553 356.283 249.937 356.11 249.239C355.937 248.529 355.765 247.773 355.592 246.969C355.44 247.597 355.277 248.166 355.104 248.676C354.932 249.186 354.769 249.62 354.617 249.978L352.575 255.785L358.655 259.295ZM366.838 273.82L362.845 271.515C362.398 271.257 362.038 270.931 361.764 270.538C361.489 270.134 361.281 269.703 361.139 269.245L359.828 264.019L351.386 259.145L350.076 262.858C349.964 263.122 349.761 263.304 349.466 263.403C349.182 263.497 348.826 263.421 348.4 263.175L344.377 260.852L352.971 240.177L358.244 243.221L366.838 273.82Z" fill="white"/>
<path d="M382.37 261.866L376.122 258.259L376.122 279.18L370.972 276.207L370.972 255.286L364.724 251.679L364.724 246.963L382.37 257.151L382.37 261.866Z" fill="white"/>
<path d="M390.168 287.29L384.987 284.298L384.987 258.662L390.168 261.653L390.168 287.29Z" fill="white"/>
<path d="M416.242 289.516C416.242 291.37 415.963 292.933 415.404 294.205C414.855 295.484 414.078 296.425 413.072 297.03C412.067 297.622 410.853 297.842 409.43 297.689C408.018 297.543 406.449 296.971 404.722 295.974C402.995 294.977 401.42 293.733 399.998 292.244C398.576 290.754 397.357 289.129 396.341 287.37C395.335 285.604 394.553 283.763 393.994 281.845C393.446 279.933 393.171 278.05 393.171 276.197C393.171 274.343 393.446 272.777 393.994 271.499C394.553 270.226 395.335 269.293 396.341 268.701C397.357 268.114 398.576 267.897 399.998 268.05C401.42 268.202 402.995 268.777 404.722 269.774C406.449 270.771 408.018 272.018 409.43 273.513C410.853 275.003 412.067 276.625 413.072 278.378C414.078 280.132 414.855 281.965 415.404 283.877C415.963 285.795 416.242 287.675 416.242 289.516ZM410.97 286.472C410.97 285.205 410.827 283.985 410.543 282.812C410.258 281.628 409.847 280.528 409.309 279.513C408.78 278.504 408.13 277.59 407.358 276.768C406.586 275.947 405.707 275.252 404.722 274.683C403.726 274.109 402.837 273.783 402.055 273.707C401.283 273.636 400.628 273.798 400.09 274.191C399.561 274.589 399.155 275.217 398.87 276.073C398.586 276.918 398.444 277.974 398.444 279.241C398.444 280.519 398.586 281.751 398.87 282.936C399.155 284.109 399.561 285.2 400.09 286.208C400.628 287.223 401.283 288.141 402.055 288.962C402.837 289.777 403.726 290.472 404.722 291.047C405.707 291.616 406.586 291.942 407.358 292.024C408.13 292.094 408.78 291.93 409.309 291.531C409.847 291.138 410.258 290.519 410.543 289.675C410.827 288.818 410.97 287.751 410.97 286.472Z" fill="white"/>
<path d="M438.656 289.647L438.656 315.284L435.974 313.736C435.578 313.507 435.242 313.243 434.968 312.944C434.704 312.639 434.44 312.228 434.176 311.712L423.707 290.378C423.748 290.859 423.773 291.319 423.783 291.759C423.804 292.193 423.814 292.598 423.814 292.973L423.814 306.715L419.273 304.093L419.273 278.457L421.985 280.023C422.209 280.152 422.397 280.272 422.549 280.383C422.701 280.495 422.839 280.621 422.96 280.762C423.082 280.891 423.199 281.046 423.311 281.228C423.423 281.41 423.55 281.642 423.692 281.923L434.252 303.416C434.201 302.894 434.166 302.398 434.145 301.929C434.125 301.448 434.115 301.002 434.115 300.592L434.115 287.026L438.656 289.647Z" fill="white"/>
</g>
<g style="mix-blend-mode:screen">
<path d="M497.827 185.306L498.016 185.077L497.856 185.002L497.856 185.002C497.794 185.117 497.783 185.238 497.827 185.306ZM497.827 185.306L498.016 185.077L499.461 185.753L499.463 185.75L499.477 185.723L502.615 180.692C503.621 179.308 504.745 178.035 505.954 176.936L506.684 173.611M497.827 185.306L499.088 187.229C498.496 188.807 498.069 190.408 497.843 191.969L495.415 194.496C495.33 194.585 495.276 194.714 495.28 194.817L495.435 198.353M495.435 198.353C495.44 198.456 495.502 198.511 495.59 198.49M495.435 198.353L495.651 198.216L497.598 196.981L495.651 198.216L495.59 198.49M495.435 198.353L495.65 198.217L495.59 198.49M495.59 198.49L498.103 197.883C498.45 199.08 498.99 200.068 499.685 200.829L498.656 204.205C498.62 204.323 498.641 204.424 498.709 204.456M498.709 204.456L501.036 205.549M498.709 204.456L498.854 204.188L498.854 204.188L500.163 201.765L500.164 201.765L498.854 204.188L498.854 204.188L498.709 204.456ZM501.036 205.549C501.104 205.581 501.204 205.537 501.284 205.44L503.578 202.657C504.648 202.725 505.82 202.541 507.057 202.087L508.031 204.332C508.065 204.41 508.15 204.424 508.241 204.366L511.378 202.376C511.47 202.318 511.548 202.2 511.574 202.084L512.303 198.759C513.513 197.659 514.637 196.386 515.642 195.002L518.05 194.802C518.134 194.795 518.232 194.713 518.294 194.599M501.036 205.549L501.18 205.282L501.181 205.282L502.489 202.857L502.491 202.857L501.181 205.282L501.181 205.282L501.036 205.549ZM518.294 194.599L520.402 190.692C520.464 190.578 520.475 190.456 520.431 190.389L519.17 188.465C519.762 186.887 520.188 185.287 520.414 183.726L522.843 181.198C522.928 181.109 522.982 180.981 522.977 180.877L522.822 177.342C522.818 177.238 522.756 177.183 522.667 177.205M518.294 194.599L518.134 194.525L518.134 194.525L516.688 193.849L516.689 193.847L518.134 194.525L518.134 194.525L518.294 194.599ZM522.667 177.205L520.155 177.812C519.808 176.614 519.268 175.627 518.573 174.866L519.602 171.489C519.638 171.371 519.617 171.27 519.549 171.238M522.667 177.205L522.607 177.478L522.607 177.478L522.143 179.589L522.143 179.59L522.063 179.954L522.062 179.954L522.142 179.588L522.142 179.588L522.607 177.478L522.607 177.478L522.667 177.205ZM519.549 171.238L517.221 170.145M519.549 171.238L519.404 171.506L519.404 171.506L518.094 173.93L518.091 173.928L519.403 171.506L519.403 171.506L519.549 171.238ZM517.221 170.145C517.153 170.113 517.054 170.157 516.973 170.255M517.221 170.145L517.077 170.412L516.973 170.255M517.221 170.145L517.077 170.413L517.881 171.634L517.881 171.635L518.017 171.842L518.017 171.842L517.88 171.635L517.88 171.634L517.077 170.413L517.077 170.412L516.973 170.255M516.973 170.255L514.679 173.037C513.61 172.97 512.438 173.153 511.201 173.607L510.227 171.363C510.192 171.284 510.108 171.27 510.016 171.328L506.88 173.318C506.788 173.377 506.71 173.494 506.684 173.611M506.684 173.611L506.89 173.561M506.684 173.611L506.89 173.561L506.987 175.754L506.989 175.752M506.89 173.561L500.636 183.576M506.89 173.561L506.88 173.319L506.891 173.56M506.89 173.561L506.891 173.56M506.989 175.752L508.376 174.872M506.989 175.752C507.581 175.376 508.114 174.726 508.455 174.001L508.217 173.454C508.292 173.626 508.393 173.763 508.516 173.866C508.623 173.618 508.707 173.363 508.763 173.109M506.989 175.752L506.891 173.561L508.482 173.176L508.483 173.176L508.763 173.109M508.376 174.872L508.034 176.432L507.701 177.949L506.552 178.993C505.574 179.883 504.663 180.914 503.847 182.037L502.863 183.39L501.764 183.482L500.636 183.576M508.376 174.872L508.734 174.645M508.376 174.872L508.529 174.173L508.734 174.645M500.636 183.576L500.393 184.026M500.636 183.576L500.393 184.026M500.393 184.026L500.986 184.93L501.561 185.806L500.982 187.346C500.501 188.627 500.156 189.924 499.973 191.188L499.759 192.669L498.65 193.823L497.511 195.008L497.529 195.418L498.707 195.133L499.854 194.856L500.184 195.992C500.465 196.961 500.902 197.762 501.466 198.38L502.145 199.123L501.676 200.661L501.192 202.248L501.46 202.373L502.534 201.07L503.582 199.799L504.628 199.865C505.496 199.919 506.445 199.77 507.446 199.403L508.622 198.973L509.067 199.997L509.523 201.049L509.882 200.822L510.224 199.262L510.557 197.745L511.706 196.701C512.684 195.811 513.594 194.781 514.411 193.658L515.394 192.304L516.494 192.212L517.622 192.118L517.865 191.669L517.272 190.765L516.697 189.888L517.275 188.349C517.756 187.067 518.102 185.77 518.285 184.507L518.499 183.026L519.608 181.872L520.746 180.686L520.728 180.277L519.551 180.561L518.403 180.839L518.074 179.702C517.793 178.733 517.356 177.933 516.791 177.315L516.113 176.572L516.582 175.034L517.066 173.447L516.798 173.321L515.723 174.625L514.675 175.896L513.629 175.83C512.761 175.775 511.812 175.924 510.811 176.291L509.636 176.722L509.191 175.697L508.734 174.645M500.393 184.026L508.734 174.645M508.763 173.109L508.763 173.107L508.485 173.174L508.484 173.174L506.891 173.56M508.763 173.109L508.585 173.919C508.969 174.184 509.529 174.141 510.123 173.763L506.891 173.56M517.61 171.659C517.61 171.658 517.611 171.658 517.611 171.657L517.611 171.657L517.61 171.659ZM522.034 179.346C522.035 179.345 522.036 179.344 522.036 179.344L522.036 179.344L522.034 179.346ZM511.269 199.942C511.271 199.941 511.272 199.94 511.273 199.939L511.271 199.941L511.269 199.942ZM500.647 204.037L500.647 204.035C500.647 204.036 500.647 204.037 500.647 204.037L500.647 204.037Z" stroke="#787878" stroke-width="5"/>
</g>
<g style="mix-blend-mode:screen">
<path d="M497.827 250.048L498.016 249.819L497.856 249.744L497.856 249.745C497.794 249.859 497.783 249.981 497.827 250.048ZM497.827 250.048L498.016 249.819L499.461 250.495L499.463 250.492L499.477 250.466L502.615 245.434C503.621 244.05 504.745 242.777 505.954 241.678L506.684 238.353M497.827 250.048L499.088 251.971C498.496 253.549 498.069 255.15 497.843 256.711L495.415 259.239C495.33 259.327 495.276 259.456 495.28 259.56L495.435 263.095M495.435 263.095C495.44 263.198 495.502 263.253 495.59 263.232M495.435 263.095L495.651 262.958L497.598 261.723L495.651 262.959L495.59 263.232M495.435 263.095L495.65 262.959L495.59 263.232M495.59 263.232L498.103 262.625C498.45 263.822 498.99 264.81 499.685 265.571L498.656 268.947C498.62 269.066 498.641 269.166 498.709 269.198M498.709 269.198L501.036 270.291M498.709 269.198L498.854 268.931L498.854 268.931L500.163 266.507L500.164 266.507L498.854 268.931L498.854 268.931L498.709 269.198ZM501.036 270.291C501.104 270.323 501.204 270.279 501.284 270.182L503.578 267.399C504.648 267.467 505.82 267.283 507.057 266.83L508.031 269.074C508.065 269.153 508.15 269.166 508.241 269.108L511.378 267.118C511.47 267.06 511.548 266.943 511.574 266.826L512.303 263.501C513.513 262.401 514.637 261.129 515.642 259.745L518.05 259.544C518.134 259.537 518.232 259.455 518.294 259.342M501.036 270.291L501.18 270.024L501.181 270.024L502.489 267.599L502.491 267.6L501.181 270.024L501.181 270.024L501.036 270.291ZM518.294 259.342L520.402 255.434C520.464 255.32 520.475 255.198 520.431 255.131L519.17 253.208C519.762 251.63 520.188 250.029 520.414 248.468L522.843 245.94C522.928 245.852 522.982 245.723 522.977 245.619L522.822 242.084C522.818 241.98 522.756 241.925 522.667 241.947M518.294 259.342L518.134 259.267L518.134 259.267L516.688 258.591L516.689 258.589L518.134 259.267L518.134 259.267L518.294 259.342ZM522.667 241.947L520.155 242.554C519.808 241.357 519.268 240.369 518.573 239.608L519.602 236.232C519.638 236.113 519.617 236.013 519.549 235.98M522.667 241.947L522.607 242.22L522.607 242.22L522.143 244.332L522.143 244.332L522.063 244.696L522.062 244.697L522.142 244.33L522.142 244.33L522.607 242.22L522.607 242.22L522.667 241.947ZM519.549 235.98L517.221 234.887M519.549 235.98L519.404 236.248L519.404 236.248L518.094 238.672L518.091 238.67L519.403 236.248L519.403 236.248L519.549 235.98ZM517.221 234.887C517.153 234.856 517.054 234.899 516.973 234.997M517.221 234.887L517.077 235.155L516.973 234.997M517.221 234.887L517.077 235.155L517.881 236.377L517.881 236.377L518.017 236.584L518.017 236.585L517.88 236.377L517.88 236.377L517.077 235.155L517.077 235.155L516.973 234.997M516.973 234.997L514.679 237.779C513.61 237.712 512.438 237.896 511.201 238.349L510.227 236.105C510.192 236.026 510.108 236.012 510.016 236.071L506.88 238.061C506.788 238.119 506.71 238.236 506.684 238.353M506.684 238.353L506.89 238.303M506.684 238.353L506.89 238.303L506.987 240.496L506.989 240.494M506.89 238.303L500.636 248.318M506.89 238.303L506.88 238.061L506.891 238.303M506.89 238.303L506.891 238.303M506.989 240.494L508.376 239.614M506.989 240.494C507.581 240.118 508.114 239.469 508.455 238.744L508.217 238.196C508.292 238.368 508.393 238.506 508.516 238.608C508.623 238.36 508.707 238.105 508.763 237.851M506.989 240.494L506.891 238.303L508.482 237.918L508.483 237.918L508.763 237.851M508.376 239.614L508.034 241.174L507.701 242.691L506.552 243.736C505.574 244.625 504.663 245.656 503.847 246.779L502.863 248.133L501.764 248.224L500.636 248.318M508.376 239.614L508.734 239.387M508.376 239.614L508.529 238.915L508.734 239.387M500.636 248.318L500.393 248.768M500.636 248.318L500.393 248.768M500.393 248.768L500.986 249.672L501.561 250.548L500.982 252.088C500.501 253.369 500.156 254.666 499.973 255.93L499.759 257.411L498.65 258.565L497.511 259.75L497.529 260.16L498.707 259.875L499.854 259.598L500.184 260.734C500.465 261.704 500.902 262.504 501.466 263.122L502.145 263.865L501.676 265.403L501.192 266.99L501.46 267.116L502.534 265.812L503.582 264.541L504.628 264.607C505.496 264.662 506.445 264.512 507.446 264.146L508.622 263.715L509.067 264.739L509.523 265.792L509.882 265.564L510.224 264.005L510.557 262.487L511.706 261.443C512.684 260.554 513.594 259.523 514.411 258.4L515.394 257.046L516.494 256.954L517.622 256.86L517.865 256.411L517.272 255.507L516.697 254.63L517.275 253.091C517.756 251.809 518.102 250.512 518.285 249.249L518.499 247.768L519.608 246.614L520.746 245.429L520.728 245.019L519.551 245.303L518.403 245.581L518.074 244.445C517.793 243.475 517.356 242.675 516.791 242.057L516.113 241.314L516.582 239.776L517.066 238.189L516.798 238.063L515.723 239.367L514.675 240.638L513.629 240.572C512.761 240.517 511.812 240.666 510.811 241.033L509.636 241.464L509.191 240.439L508.734 239.387M500.393 248.768L508.734 239.387M508.763 237.851L508.763 237.849L508.485 237.916L508.484 237.916L506.891 238.303M508.763 237.851L508.585 238.661C508.969 238.926 509.529 238.883 510.123 238.506L506.891 238.303M517.61 236.401C517.61 236.401 517.611 236.4 517.611 236.399L517.611 236.399L517.61 236.401ZM522.034 244.088C522.035 244.087 522.036 244.086 522.036 244.086L522.036 244.086L522.034 244.088ZM511.269 264.684C511.271 264.683 511.272 264.682 511.273 264.681L511.271 264.683L511.269 264.684ZM500.647 268.779L500.647 268.778C500.647 268.778 500.647 268.779 500.647 268.78L500.647 268.779Z" stroke="#787878" stroke-width="5"/>
</g>
<g style="mix-blend-mode:screen">
<path d="M499.827 319.79L500.016 319.561L499.856 319.486L499.856 319.487C499.794 319.601 499.783 319.723 499.827 319.79ZM499.827 319.79L500.016 319.561L501.461 320.237L501.463 320.235L501.477 320.208L504.615 315.176C505.621 313.792 506.745 312.519 507.954 311.42L508.684 308.095M499.827 319.79L501.088 321.713C500.496 323.292 500.069 324.892 499.843 326.453L497.415 328.981C497.33 329.069 497.276 329.198 497.28 329.302L497.435 332.837M497.435 332.837C497.44 332.941 497.502 332.996 497.59 332.974M497.435 332.837L497.651 332.701L499.598 331.465L497.651 332.701L497.59 332.974M497.435 332.837L497.65 332.701L497.59 332.974M497.59 332.974L500.103 332.367C500.45 333.565 500.99 334.552 501.685 335.313L500.656 338.69C500.62 338.808 500.641 338.909 500.709 338.941M500.709 338.941L503.036 340.034M500.709 338.941L500.854 338.673L500.854 338.673L502.163 336.249L502.164 336.249L500.854 338.673L500.854 338.673L500.709 338.941ZM503.036 340.034C503.104 340.065 503.204 340.021 503.284 339.924L505.578 337.142C506.648 337.209 507.82 337.025 509.057 336.572L510.031 338.816C510.065 338.895 510.15 338.909 510.241 338.85L513.378 336.86C513.47 336.802 513.548 336.685 513.574 336.568L514.303 333.243C515.513 332.144 516.637 330.871 517.642 329.487L520.05 329.286C520.134 329.279 520.232 329.198 520.294 329.084M503.036 340.034L503.18 339.766L503.181 339.766L504.489 337.341L504.491 337.342L503.181 339.766L503.181 339.767L503.036 340.034ZM520.294 329.084L522.402 325.177C522.464 325.062 522.475 324.941 522.431 324.873L521.17 322.95C521.762 321.372 522.188 319.771 522.414 318.21L524.843 315.682C524.928 315.594 524.982 315.465 524.977 315.362L524.822 311.826C524.818 311.723 524.756 311.668 524.667 311.689M520.294 329.084L520.134 329.009L520.134 329.009L518.688 328.333L518.689 328.332L520.134 329.009L520.134 329.009L520.294 329.084ZM524.667 311.689L522.155 312.296C521.808 311.099 521.268 310.111 520.573 309.35L521.602 305.974C521.638 305.856 521.617 305.755 521.549 305.723M524.667 311.689L524.607 311.962L524.607 311.962L524.143 314.074L524.143 314.074L524.063 314.438L524.062 314.439L524.142 314.073L524.142 314.072L524.607 311.963L524.607 311.962L524.667 311.689ZM521.549 305.723L519.221 304.63M521.549 305.723L521.404 305.99L521.404 305.99L520.094 308.414L520.091 308.412L521.403 305.991L521.403 305.991L521.549 305.723ZM519.221 304.63C519.153 304.598 519.054 304.641 518.973 304.739M519.221 304.63L519.077 304.897L518.973 304.739M519.221 304.63L519.077 304.897L519.881 306.119L519.881 306.119L520.017 306.327L520.017 306.327L519.88 306.119L519.88 306.119L519.077 304.897L519.077 304.897L518.973 304.739M518.973 304.739L516.679 307.521C515.61 307.454 514.438 307.638 513.201 308.091L512.227 305.847C512.192 305.768 512.108 305.754 512.016 305.813L508.88 307.803C508.788 307.861 508.71 307.978 508.684 308.095M508.684 308.095L508.89 308.045M508.684 308.095L508.89 308.045L508.987 310.238L508.989 310.236M508.89 308.045L502.636 318.06M508.89 308.045L508.88 307.803L508.891 308.045M508.89 308.045L508.891 308.045M508.989 310.236L510.376 309.357M508.989 310.236C509.581 309.86 510.114 309.211 510.455 308.486L510.217 307.938C510.292 308.11 510.393 308.248 510.516 308.35C510.623 308.103 510.707 307.848 510.763 307.593M508.989 310.236L508.891 308.045L510.482 307.661L510.483 307.661L510.763 307.593M510.376 309.357L510.034 310.916L509.701 312.434L508.552 313.478C507.574 314.367 506.663 315.398 505.847 316.521L504.863 317.875L503.764 317.966L502.636 318.06M510.376 309.357L510.734 309.129M510.376 309.357L510.529 308.657L510.734 309.129M502.636 318.06L502.393 318.51M502.636 318.06L502.393 318.51M502.393 318.51L502.986 319.414L503.561 320.291L502.982 321.83C502.501 323.112 502.156 324.409 501.973 325.672L501.759 327.153L500.65 328.307L499.511 329.493L499.529 329.902L500.707 329.618L501.854 329.34L502.184 330.477C502.465 331.446 502.902 332.246 503.466 332.864L504.145 333.607L503.676 335.145L503.192 336.732L503.46 336.858L504.534 335.554L505.582 334.283L506.628 334.349C507.496 334.404 508.445 334.255 509.446 333.888L510.622 333.457L511.067 334.482L511.523 335.534L511.882 335.306L512.224 333.747L512.557 332.229L513.706 331.185C514.684 330.296 515.594 329.265 516.411 328.142L517.394 326.788L518.494 326.697L519.622 326.603L519.865 326.153L519.272 325.249L518.697 324.373L519.275 322.833C519.756 321.552 520.102 320.255 520.285 318.991L520.499 317.51L521.608 316.356L522.746 315.171L522.728 314.761L521.551 315.046L520.403 315.323L520.074 314.187C519.793 313.217 519.356 312.417 518.791 311.799L518.113 311.056L518.582 309.518L519.066 307.931L518.798 307.805L517.723 309.109L516.675 310.38L515.629 310.314C514.761 310.259 513.812 310.409 512.811 310.775L511.636 311.206L511.191 310.181L510.734 309.129M502.393 318.51L510.734 309.129M510.763 307.593L510.763 307.591L510.485 307.659L510.484 307.659L508.891 308.045M510.763 307.593L510.585 308.403C510.969 308.668 511.529 308.625 512.123 308.248L508.891 308.045M519.61 306.144C519.61 306.143 519.611 306.142 519.611 306.141L519.611 306.142L519.61 306.144ZM524.034 313.83C524.035 313.829 524.036 313.829 524.036 313.828L524.036 313.828L524.034 313.83ZM513.269 334.426C513.271 334.425 513.272 334.424 513.273 334.424L513.271 334.425L513.269 334.426ZM502.647 338.522L502.647 338.52C502.647 338.521 502.647 338.521 502.647 338.522L502.647 338.522Z" stroke="#787878" stroke-width="5"/>
</g>
<defs>
<filter id="filter0_f_5564_2966" x="140.955" y="117.217" width="301.701" height="197.067" filterUnits="userSpaceOnUse" color-interpolation-filters="sRGB">
<feFlood flood-opacity="0" result="BackgroundImageFix"/>
<feBlend mode="normal" in="SourceGraphic" in2="BackgroundImageFix" result="shape"/>
<feGaussianBlur stdDeviation="1" result="effect1_foregroundBlur_5564_2966"/>
</filter>
<filter id="filter1_d_5564_2966" x="134.955" y="120.217" width="309.701" height="205.067" filterUnits="userSpaceOnUse" color-interpolation-filters="sRGB">
<feFlood flood-opacity="0" result="BackgroundImageFix"/>
<feColorMatrix in="SourceAlpha" type="matrix" values="0 0 0 0 0 0 0 0 0 0 0 0 0 0 0 0 0 0 127 0" result="hardAlpha"/>
<feOffset dy="4"/>
<feGaussianBlur stdDeviation="3"/>
<feComposite in2="hardAlpha" operator="out"/>
<feColorMatrix type="matrix" values="0 0 0 0 0 0 0 0 0 0 0 0 0 0 0 0 0 0 0.25 0"/>
<feBlend mode="normal" in2="BackgroundImageFix" result="effect1_dropShadow_5564_2966"/>
<feBlend mode="normal" in="SourceGraphic" in2="effect1_dropShadow_5564_2966" result="shape"/>
</filter>
<linearGradient id="paint0_linear_5564_2966" x1="146.126" y1="306.219" x2="200.23" y2="212.5" gradientUnits="userSpaceOnUse">
<stop stop-color="#498095"/>
<stop offset="1" stop-color="#86D0EA" stop-opacity="0"/>
</linearGradient>
<linearGradient id="paint1_linear_5564_2966" x1="424.798" y1="261.039" x2="478.901" y2="167.321" gradientUnits="userSpaceOnUse">
<stop stop-color="#86D0EA" stop-opacity="0"/>
<stop offset="0.627442" stop-color="#498095"/>
</linearGradient>
<linearGradient id="paint2_linear_5564_2966" x1="466.542" y1="349.346" x2="290.244" y2="43.9894" gradientUnits="userSpaceOnUse">
<stop stop-color="#498095"/>
<stop offset="1" stop-color="#86D0EA" stop-opacity="0"/>
</linearGradient>
</defs>
</svg>
